G04 #@! TF.GenerationSoftware,KiCad,Pcbnew,5.1.6-c6e7f7d~86~ubuntu19.10.1*
G04 #@! TF.CreationDate,2020-05-21T12:39:08+02:00*
G04 #@! TF.ProjectId,MicroDroplet,4d696372-6f44-4726-9f70-6c65742e6b69,rev?*
G04 #@! TF.SameCoordinates,Original*
G04 #@! TF.FileFunction,Paste,Bot*
G04 #@! TF.FilePolarity,Positive*
%FSLAX46Y46*%
G04 Gerber Fmt 4.6, Leading zero omitted, Abs format (unit mm)*
G04 Created by KiCad (PCBNEW 5.1.6-c6e7f7d~86~ubuntu19.10.1) date 2020-05-21 12:39:08*
%MOMM*%
%LPD*%
G01*
G04 APERTURE LIST*
%ADD10R,3.500000X2.300000*%
%ADD11R,5.250000X4.550000*%
%ADD12R,1.100000X4.600000*%
%ADD13R,0.500000X1.300000*%
%ADD14R,1.300000X0.500000*%
%ADD15R,5.300000X2.800000*%
G04 APERTURE END LIST*
G36*
G01*
X92352000Y-103167000D02*
X92352000Y-105167000D01*
G75*
G02*
X92102000Y-105417000I-250000J0D01*
G01*
X88202000Y-105417000D01*
G75*
G02*
X87952000Y-105167000I0J250000D01*
G01*
X87952000Y-103167000D01*
G75*
G02*
X88202000Y-102917000I250000J0D01*
G01*
X92102000Y-102917000D01*
G75*
G02*
X92352000Y-103167000I0J-250000D01*
G01*
G37*
G36*
G01*
X100752000Y-103167000D02*
X100752000Y-105167000D01*
G75*
G02*
X100502000Y-105417000I-250000J0D01*
G01*
X96602000Y-105417000D01*
G75*
G02*
X96352000Y-105167000I0J250000D01*
G01*
X96352000Y-103167000D01*
G75*
G02*
X96602000Y-102917000I250000J0D01*
G01*
X100502000Y-102917000D01*
G75*
G02*
X100752000Y-103167000I0J-250000D01*
G01*
G37*
G36*
G01*
X107278000Y-80451000D02*
X106178000Y-80451000D01*
G75*
G02*
X105928000Y-80201000I0J250000D01*
G01*
X105928000Y-77201000D01*
G75*
G02*
X106178000Y-76951000I250000J0D01*
G01*
X107278000Y-76951000D01*
G75*
G02*
X107528000Y-77201000I0J-250000D01*
G01*
X107528000Y-80201000D01*
G75*
G02*
X107278000Y-80451000I-250000J0D01*
G01*
G37*
G36*
G01*
X107278000Y-85851000D02*
X106178000Y-85851000D01*
G75*
G02*
X105928000Y-85601000I0J250000D01*
G01*
X105928000Y-82601000D01*
G75*
G02*
X106178000Y-82351000I250000J0D01*
G01*
X107278000Y-82351000D01*
G75*
G02*
X107528000Y-82601000I0J-250000D01*
G01*
X107528000Y-85601000D01*
G75*
G02*
X107278000Y-85851000I-250000J0D01*
G01*
G37*
G36*
G01*
X112766001Y-75251000D02*
X111865999Y-75251000D01*
G75*
G02*
X111616000Y-75001001I0J249999D01*
G01*
X111616000Y-74350999D01*
G75*
G02*
X111865999Y-74101000I249999J0D01*
G01*
X112766001Y-74101000D01*
G75*
G02*
X113016000Y-74350999I0J-249999D01*
G01*
X113016000Y-75001001D01*
G75*
G02*
X112766001Y-75251000I-249999J0D01*
G01*
G37*
G36*
G01*
X112766001Y-77301000D02*
X111865999Y-77301000D01*
G75*
G02*
X111616000Y-77051001I0J249999D01*
G01*
X111616000Y-76400999D01*
G75*
G02*
X111865999Y-76151000I249999J0D01*
G01*
X112766001Y-76151000D01*
G75*
G02*
X113016000Y-76400999I0J-249999D01*
G01*
X113016000Y-77051001D01*
G75*
G02*
X112766001Y-77301000I-249999J0D01*
G01*
G37*
D10*
X111572000Y-103378000D03*
X106172000Y-103378000D03*
D11*
X122663000Y-94930000D03*
X117113000Y-99780000D03*
X117113000Y-94930000D03*
X122663000Y-99780000D03*
D12*
X122428000Y-88205000D03*
X117348000Y-88205000D03*
G36*
G01*
X119150000Y-84378000D02*
X119150000Y-84078000D01*
G75*
G02*
X119300000Y-83928000I150000J0D01*
G01*
X120950000Y-83928000D01*
G75*
G02*
X121100000Y-84078000I0J-150000D01*
G01*
X121100000Y-84378000D01*
G75*
G02*
X120950000Y-84528000I-150000J0D01*
G01*
X119300000Y-84528000D01*
G75*
G02*
X119150000Y-84378000I0J150000D01*
G01*
G37*
G36*
G01*
X119150000Y-83108000D02*
X119150000Y-82808000D01*
G75*
G02*
X119300000Y-82658000I150000J0D01*
G01*
X120950000Y-82658000D01*
G75*
G02*
X121100000Y-82808000I0J-150000D01*
G01*
X121100000Y-83108000D01*
G75*
G02*
X120950000Y-83258000I-150000J0D01*
G01*
X119300000Y-83258000D01*
G75*
G02*
X119150000Y-83108000I0J150000D01*
G01*
G37*
G36*
G01*
X119150000Y-81838000D02*
X119150000Y-81538000D01*
G75*
G02*
X119300000Y-81388000I150000J0D01*
G01*
X120950000Y-81388000D01*
G75*
G02*
X121100000Y-81538000I0J-150000D01*
G01*
X121100000Y-81838000D01*
G75*
G02*
X120950000Y-81988000I-150000J0D01*
G01*
X119300000Y-81988000D01*
G75*
G02*
X119150000Y-81838000I0J150000D01*
G01*
G37*
G36*
G01*
X119150000Y-80568000D02*
X119150000Y-80268000D01*
G75*
G02*
X119300000Y-80118000I150000J0D01*
G01*
X120950000Y-80118000D01*
G75*
G02*
X121100000Y-80268000I0J-150000D01*
G01*
X121100000Y-80568000D01*
G75*
G02*
X120950000Y-80718000I-150000J0D01*
G01*
X119300000Y-80718000D01*
G75*
G02*
X119150000Y-80568000I0J150000D01*
G01*
G37*
G36*
G01*
X114200000Y-80568000D02*
X114200000Y-80268000D01*
G75*
G02*
X114350000Y-80118000I150000J0D01*
G01*
X116000000Y-80118000D01*
G75*
G02*
X116150000Y-80268000I0J-150000D01*
G01*
X116150000Y-80568000D01*
G75*
G02*
X116000000Y-80718000I-150000J0D01*
G01*
X114350000Y-80718000D01*
G75*
G02*
X114200000Y-80568000I0J150000D01*
G01*
G37*
G36*
G01*
X114200000Y-81838000D02*
X114200000Y-81538000D01*
G75*
G02*
X114350000Y-81388000I150000J0D01*
G01*
X116000000Y-81388000D01*
G75*
G02*
X116150000Y-81538000I0J-150000D01*
G01*
X116150000Y-81838000D01*
G75*
G02*
X116000000Y-81988000I-150000J0D01*
G01*
X114350000Y-81988000D01*
G75*
G02*
X114200000Y-81838000I0J150000D01*
G01*
G37*
G36*
G01*
X114200000Y-83108000D02*
X114200000Y-82808000D01*
G75*
G02*
X114350000Y-82658000I150000J0D01*
G01*
X116000000Y-82658000D01*
G75*
G02*
X116150000Y-82808000I0J-150000D01*
G01*
X116150000Y-83108000D01*
G75*
G02*
X116000000Y-83258000I-150000J0D01*
G01*
X114350000Y-83258000D01*
G75*
G02*
X114200000Y-83108000I0J150000D01*
G01*
G37*
G36*
G01*
X114200000Y-84378000D02*
X114200000Y-84078000D01*
G75*
G02*
X114350000Y-83928000I150000J0D01*
G01*
X116000000Y-83928000D01*
G75*
G02*
X116150000Y-84078000I0J-150000D01*
G01*
X116150000Y-84378000D01*
G75*
G02*
X116000000Y-84528000I-150000J0D01*
G01*
X114350000Y-84528000D01*
G75*
G02*
X114200000Y-84378000I0J150000D01*
G01*
G37*
G36*
G01*
X94748000Y-91827000D02*
X95848000Y-91827000D01*
G75*
G02*
X96098000Y-92077000I0J-250000D01*
G01*
X96098000Y-94577000D01*
G75*
G02*
X95848000Y-94827000I-250000J0D01*
G01*
X94748000Y-94827000D01*
G75*
G02*
X94498000Y-94577000I0J250000D01*
G01*
X94498000Y-92077000D01*
G75*
G02*
X94748000Y-91827000I250000J0D01*
G01*
G37*
G36*
G01*
X94748000Y-87427000D02*
X95848000Y-87427000D01*
G75*
G02*
X96098000Y-87677000I0J-250000D01*
G01*
X96098000Y-90177000D01*
G75*
G02*
X95848000Y-90427000I-250000J0D01*
G01*
X94748000Y-90427000D01*
G75*
G02*
X94498000Y-90177000I0J250000D01*
G01*
X94498000Y-87677000D01*
G75*
G02*
X94748000Y-87427000I250000J0D01*
G01*
G37*
D13*
X123154000Y-144363000D03*
X123954000Y-144363000D03*
X124754000Y-144363000D03*
X125554000Y-144363000D03*
X126354000Y-144363000D03*
X127154000Y-144363000D03*
X127954000Y-144363000D03*
X128754000Y-144363000D03*
X129554000Y-144363000D03*
X130354000Y-144363000D03*
X131154000Y-144363000D03*
X131954000Y-144363000D03*
X132754000Y-144363000D03*
X133554000Y-144363000D03*
X134354000Y-144363000D03*
X135154000Y-144363000D03*
D14*
X137304000Y-142413000D03*
X137304000Y-141613000D03*
X137304000Y-140813000D03*
X137304000Y-140013000D03*
X137304000Y-139213000D03*
X137304000Y-138413000D03*
X137304000Y-137613000D03*
X137304000Y-136813000D03*
X137304000Y-136013000D03*
X137304000Y-135213000D03*
X137304000Y-134413000D03*
X137304000Y-133613000D03*
X137304000Y-132813000D03*
X137304000Y-132013000D03*
X137304000Y-131213000D03*
X137304000Y-130413000D03*
X137304000Y-129613000D03*
X137304000Y-128813000D03*
X137304000Y-128013000D03*
X137304000Y-127213000D03*
X137304000Y-126413000D03*
X137304000Y-125613000D03*
X137304000Y-124813000D03*
X137304000Y-124013000D03*
D13*
X135154000Y-122063000D03*
X134354000Y-122063000D03*
X133554000Y-122063000D03*
X132754000Y-122063000D03*
X131954000Y-122063000D03*
X131154000Y-122063000D03*
X130354000Y-122063000D03*
X129554000Y-122063000D03*
X128754000Y-122063000D03*
X127954000Y-122063000D03*
X127154000Y-122063000D03*
X126354000Y-122063000D03*
X125554000Y-122063000D03*
X124754000Y-122063000D03*
X123954000Y-122063000D03*
X123154000Y-122063000D03*
D14*
X121004000Y-124013000D03*
X121004000Y-124813000D03*
X121004000Y-125613000D03*
X121004000Y-126413000D03*
X121004000Y-127213000D03*
X121004000Y-128013000D03*
X121004000Y-128813000D03*
X121004000Y-129613000D03*
X121004000Y-130413000D03*
X121004000Y-131213000D03*
X121004000Y-132013000D03*
X121004000Y-132813000D03*
X121004000Y-133613000D03*
X121004000Y-134413000D03*
X121004000Y-135213000D03*
X121004000Y-136013000D03*
X121004000Y-136813000D03*
X121004000Y-137613000D03*
X121004000Y-138413000D03*
X121004000Y-139213000D03*
X121004000Y-140013000D03*
X121004000Y-140813000D03*
X121004000Y-141613000D03*
X121004000Y-142413000D03*
G36*
G01*
X126647001Y-83445500D02*
X123796999Y-83445500D01*
G75*
G02*
X123547000Y-83195501I0J249999D01*
G01*
X123547000Y-82170499D01*
G75*
G02*
X123796999Y-81920500I249999J0D01*
G01*
X126647001Y-81920500D01*
G75*
G02*
X126897000Y-82170499I0J-249999D01*
G01*
X126897000Y-83195501D01*
G75*
G02*
X126647001Y-83445500I-249999J0D01*
G01*
G37*
G36*
G01*
X126647001Y-77470500D02*
X123796999Y-77470500D01*
G75*
G02*
X123547000Y-77220501I0J249999D01*
G01*
X123547000Y-76195499D01*
G75*
G02*
X123796999Y-75945500I249999J0D01*
G01*
X126647001Y-75945500D01*
G75*
G02*
X126897000Y-76195499I0J-249999D01*
G01*
X126897000Y-77220501D01*
G75*
G02*
X126647001Y-77470500I-249999J0D01*
G01*
G37*
G36*
G01*
X112687000Y-82346500D02*
X111437000Y-82346500D01*
G75*
G02*
X111187000Y-82096500I0J250000D01*
G01*
X111187000Y-81171500D01*
G75*
G02*
X111437000Y-80921500I250000J0D01*
G01*
X112687000Y-80921500D01*
G75*
G02*
X112937000Y-81171500I0J-250000D01*
G01*
X112937000Y-82096500D01*
G75*
G02*
X112687000Y-82346500I-250000J0D01*
G01*
G37*
G36*
G01*
X112687000Y-85321500D02*
X111437000Y-85321500D01*
G75*
G02*
X111187000Y-85071500I0J250000D01*
G01*
X111187000Y-84146500D01*
G75*
G02*
X111437000Y-83896500I250000J0D01*
G01*
X112687000Y-83896500D01*
G75*
G02*
X112937000Y-84146500I0J-250000D01*
G01*
X112937000Y-85071500D01*
G75*
G02*
X112687000Y-85321500I-250000J0D01*
G01*
G37*
D15*
X106172000Y-88392000D03*
X106172000Y-98492000D03*
G36*
G01*
X93168500Y-110627000D02*
X93168500Y-111877000D01*
G75*
G02*
X92918500Y-112127000I-250000J0D01*
G01*
X91993500Y-112127000D01*
G75*
G02*
X91743500Y-111877000I0J250000D01*
G01*
X91743500Y-110627000D01*
G75*
G02*
X91993500Y-110377000I250000J0D01*
G01*
X92918500Y-110377000D01*
G75*
G02*
X93168500Y-110627000I0J-250000D01*
G01*
G37*
G36*
G01*
X96143500Y-110627000D02*
X96143500Y-111877000D01*
G75*
G02*
X95893500Y-112127000I-250000J0D01*
G01*
X94968500Y-112127000D01*
G75*
G02*
X94718500Y-111877000I0J250000D01*
G01*
X94718500Y-110627000D01*
G75*
G02*
X94968500Y-110377000I250000J0D01*
G01*
X95893500Y-110377000D01*
G75*
G02*
X96143500Y-110627000I0J-250000D01*
G01*
G37*
G36*
G01*
X122624001Y-77011000D02*
X121723999Y-77011000D01*
G75*
G02*
X121474000Y-76761001I0J249999D01*
G01*
X121474000Y-76110999D01*
G75*
G02*
X121723999Y-75861000I249999J0D01*
G01*
X122624001Y-75861000D01*
G75*
G02*
X122874000Y-76110999I0J-249999D01*
G01*
X122874000Y-76761001D01*
G75*
G02*
X122624001Y-77011000I-249999J0D01*
G01*
G37*
G36*
G01*
X122624001Y-79061000D02*
X121723999Y-79061000D01*
G75*
G02*
X121474000Y-78811001I0J249999D01*
G01*
X121474000Y-78160999D01*
G75*
G02*
X121723999Y-77911000I249999J0D01*
G01*
X122624001Y-77911000D01*
G75*
G02*
X122874000Y-78160999I0J-249999D01*
G01*
X122874000Y-78811001D01*
G75*
G02*
X122624001Y-79061000I-249999J0D01*
G01*
G37*
G36*
G01*
X110686001Y-75233000D02*
X109785999Y-75233000D01*
G75*
G02*
X109536000Y-74983001I0J249999D01*
G01*
X109536000Y-74332999D01*
G75*
G02*
X109785999Y-74083000I249999J0D01*
G01*
X110686001Y-74083000D01*
G75*
G02*
X110936000Y-74332999I0J-249999D01*
G01*
X110936000Y-74983001D01*
G75*
G02*
X110686001Y-75233000I-249999J0D01*
G01*
G37*
G36*
G01*
X110686001Y-77283000D02*
X109785999Y-77283000D01*
G75*
G02*
X109536000Y-77033001I0J249999D01*
G01*
X109536000Y-76382999D01*
G75*
G02*
X109785999Y-76133000I249999J0D01*
G01*
X110686001Y-76133000D01*
G75*
G02*
X110936000Y-76382999I0J-249999D01*
G01*
X110936000Y-77033001D01*
G75*
G02*
X110686001Y-77283000I-249999J0D01*
G01*
G37*
G36*
G01*
X128303000Y-119370001D02*
X128303000Y-118469999D01*
G75*
G02*
X128552999Y-118220000I249999J0D01*
G01*
X129203001Y-118220000D01*
G75*
G02*
X129453000Y-118469999I0J-249999D01*
G01*
X129453000Y-119370001D01*
G75*
G02*
X129203001Y-119620000I-249999J0D01*
G01*
X128552999Y-119620000D01*
G75*
G02*
X128303000Y-119370001I0J249999D01*
G01*
G37*
G36*
G01*
X126253000Y-119370001D02*
X126253000Y-118469999D01*
G75*
G02*
X126502999Y-118220000I249999J0D01*
G01*
X127153001Y-118220000D01*
G75*
G02*
X127403000Y-118469999I0J-249999D01*
G01*
X127403000Y-119370001D01*
G75*
G02*
X127153001Y-119620000I-249999J0D01*
G01*
X126502999Y-119620000D01*
G75*
G02*
X126253000Y-119370001I0J249999D01*
G01*
G37*
M02*
