G04 #@! TF.GenerationSoftware,KiCad,Pcbnew,5.1.6-c6e7f7d~86~ubuntu19.10.1*
G04 #@! TF.CreationDate,2020-05-21T12:39:08+02:00*
G04 #@! TF.ProjectId,MicroDroplet,4d696372-6f44-4726-9f70-6c65742e6b69,rev?*
G04 #@! TF.SameCoordinates,Original*
G04 #@! TF.FileFunction,Paste,Top*
G04 #@! TF.FilePolarity,Positive*
%FSLAX46Y46*%
G04 Gerber Fmt 4.6, Leading zero omitted, Abs format (unit mm)*
G04 Created by KiCad (PCBNEW 5.1.6-c6e7f7d~86~ubuntu19.10.1) date 2020-05-21 12:39:08*
%MOMM*%
%LPD*%
G01*
G04 APERTURE LIST*
G04 APERTURE END LIST*
G36*
G01*
X157947000Y-90855000D02*
X157947000Y-90555000D01*
G75*
G02*
X158097000Y-90405000I150000J0D01*
G01*
X159747000Y-90405000D01*
G75*
G02*
X159897000Y-90555000I0J-150000D01*
G01*
X159897000Y-90855000D01*
G75*
G02*
X159747000Y-91005000I-150000J0D01*
G01*
X158097000Y-91005000D01*
G75*
G02*
X157947000Y-90855000I0J150000D01*
G01*
G37*
G36*
G01*
X157947000Y-92125000D02*
X157947000Y-91825000D01*
G75*
G02*
X158097000Y-91675000I150000J0D01*
G01*
X159747000Y-91675000D01*
G75*
G02*
X159897000Y-91825000I0J-150000D01*
G01*
X159897000Y-92125000D01*
G75*
G02*
X159747000Y-92275000I-150000J0D01*
G01*
X158097000Y-92275000D01*
G75*
G02*
X157947000Y-92125000I0J150000D01*
G01*
G37*
G36*
G01*
X157947000Y-93395000D02*
X157947000Y-93095000D01*
G75*
G02*
X158097000Y-92945000I150000J0D01*
G01*
X159747000Y-92945000D01*
G75*
G02*
X159897000Y-93095000I0J-150000D01*
G01*
X159897000Y-93395000D01*
G75*
G02*
X159747000Y-93545000I-150000J0D01*
G01*
X158097000Y-93545000D01*
G75*
G02*
X157947000Y-93395000I0J150000D01*
G01*
G37*
G36*
G01*
X157947000Y-94665000D02*
X157947000Y-94365000D01*
G75*
G02*
X158097000Y-94215000I150000J0D01*
G01*
X159747000Y-94215000D01*
G75*
G02*
X159897000Y-94365000I0J-150000D01*
G01*
X159897000Y-94665000D01*
G75*
G02*
X159747000Y-94815000I-150000J0D01*
G01*
X158097000Y-94815000D01*
G75*
G02*
X157947000Y-94665000I0J150000D01*
G01*
G37*
G36*
G01*
X152997000Y-94665000D02*
X152997000Y-94365000D01*
G75*
G02*
X153147000Y-94215000I150000J0D01*
G01*
X154797000Y-94215000D01*
G75*
G02*
X154947000Y-94365000I0J-150000D01*
G01*
X154947000Y-94665000D01*
G75*
G02*
X154797000Y-94815000I-150000J0D01*
G01*
X153147000Y-94815000D01*
G75*
G02*
X152997000Y-94665000I0J150000D01*
G01*
G37*
G36*
G01*
X152997000Y-93395000D02*
X152997000Y-93095000D01*
G75*
G02*
X153147000Y-92945000I150000J0D01*
G01*
X154797000Y-92945000D01*
G75*
G02*
X154947000Y-93095000I0J-150000D01*
G01*
X154947000Y-93395000D01*
G75*
G02*
X154797000Y-93545000I-150000J0D01*
G01*
X153147000Y-93545000D01*
G75*
G02*
X152997000Y-93395000I0J150000D01*
G01*
G37*
G36*
G01*
X152997000Y-92125000D02*
X152997000Y-91825000D01*
G75*
G02*
X153147000Y-91675000I150000J0D01*
G01*
X154797000Y-91675000D01*
G75*
G02*
X154947000Y-91825000I0J-150000D01*
G01*
X154947000Y-92125000D01*
G75*
G02*
X154797000Y-92275000I-150000J0D01*
G01*
X153147000Y-92275000D01*
G75*
G02*
X152997000Y-92125000I0J150000D01*
G01*
G37*
G36*
G01*
X152997000Y-90855000D02*
X152997000Y-90555000D01*
G75*
G02*
X153147000Y-90405000I150000J0D01*
G01*
X154797000Y-90405000D01*
G75*
G02*
X154947000Y-90555000I0J-150000D01*
G01*
X154947000Y-90855000D01*
G75*
G02*
X154797000Y-91005000I-150000J0D01*
G01*
X153147000Y-91005000D01*
G75*
G02*
X152997000Y-90855000I0J150000D01*
G01*
G37*
G36*
G01*
X163681999Y-93450000D02*
X164582001Y-93450000D01*
G75*
G02*
X164832000Y-93699999I0J-249999D01*
G01*
X164832000Y-94350001D01*
G75*
G02*
X164582001Y-94600000I-249999J0D01*
G01*
X163681999Y-94600000D01*
G75*
G02*
X163432000Y-94350001I0J249999D01*
G01*
X163432000Y-93699999D01*
G75*
G02*
X163681999Y-93450000I249999J0D01*
G01*
G37*
G36*
G01*
X163681999Y-91400000D02*
X164582001Y-91400000D01*
G75*
G02*
X164832000Y-91649999I0J-249999D01*
G01*
X164832000Y-92300001D01*
G75*
G02*
X164582001Y-92550000I-249999J0D01*
G01*
X163681999Y-92550000D01*
G75*
G02*
X163432000Y-92300001I0J249999D01*
G01*
X163432000Y-91649999D01*
G75*
G02*
X163681999Y-91400000I249999J0D01*
G01*
G37*
G36*
G01*
X150727999Y-93949000D02*
X151628001Y-93949000D01*
G75*
G02*
X151878000Y-94198999I0J-249999D01*
G01*
X151878000Y-94849001D01*
G75*
G02*
X151628001Y-95099000I-249999J0D01*
G01*
X150727999Y-95099000D01*
G75*
G02*
X150478000Y-94849001I0J249999D01*
G01*
X150478000Y-94198999D01*
G75*
G02*
X150727999Y-93949000I249999J0D01*
G01*
G37*
G36*
G01*
X150727999Y-91899000D02*
X151628001Y-91899000D01*
G75*
G02*
X151878000Y-92148999I0J-249999D01*
G01*
X151878000Y-92799001D01*
G75*
G02*
X151628001Y-93049000I-249999J0D01*
G01*
X150727999Y-93049000D01*
G75*
G02*
X150478000Y-92799001I0J249999D01*
G01*
X150478000Y-92148999D01*
G75*
G02*
X150727999Y-91899000I249999J0D01*
G01*
G37*
G36*
G01*
X150727999Y-89894000D02*
X151628001Y-89894000D01*
G75*
G02*
X151878000Y-90143999I0J-249999D01*
G01*
X151878000Y-90794001D01*
G75*
G02*
X151628001Y-91044000I-249999J0D01*
G01*
X150727999Y-91044000D01*
G75*
G02*
X150478000Y-90794001I0J249999D01*
G01*
X150478000Y-90143999D01*
G75*
G02*
X150727999Y-89894000I249999J0D01*
G01*
G37*
G36*
G01*
X150727999Y-87844000D02*
X151628001Y-87844000D01*
G75*
G02*
X151878000Y-88093999I0J-249999D01*
G01*
X151878000Y-88744001D01*
G75*
G02*
X151628001Y-88994000I-249999J0D01*
G01*
X150727999Y-88994000D01*
G75*
G02*
X150478000Y-88744001I0J249999D01*
G01*
X150478000Y-88093999D01*
G75*
G02*
X150727999Y-87844000I249999J0D01*
G01*
G37*
G36*
G01*
X161395999Y-93450000D02*
X162296001Y-93450000D01*
G75*
G02*
X162546000Y-93699999I0J-249999D01*
G01*
X162546000Y-94350001D01*
G75*
G02*
X162296001Y-94600000I-249999J0D01*
G01*
X161395999Y-94600000D01*
G75*
G02*
X161146000Y-94350001I0J249999D01*
G01*
X161146000Y-93699999D01*
G75*
G02*
X161395999Y-93450000I249999J0D01*
G01*
G37*
G36*
G01*
X161395999Y-91400000D02*
X162296001Y-91400000D01*
G75*
G02*
X162546000Y-91649999I0J-249999D01*
G01*
X162546000Y-92300001D01*
G75*
G02*
X162296001Y-92550000I-249999J0D01*
G01*
X161395999Y-92550000D01*
G75*
G02*
X161146000Y-92300001I0J249999D01*
G01*
X161146000Y-91649999D01*
G75*
G02*
X161395999Y-91400000I249999J0D01*
G01*
G37*
G36*
G01*
X166868001Y-92532000D02*
X165967999Y-92532000D01*
G75*
G02*
X165718000Y-92282001I0J249999D01*
G01*
X165718000Y-91631999D01*
G75*
G02*
X165967999Y-91382000I249999J0D01*
G01*
X166868001Y-91382000D01*
G75*
G02*
X167118000Y-91631999I0J-249999D01*
G01*
X167118000Y-92282001D01*
G75*
G02*
X166868001Y-92532000I-249999J0D01*
G01*
G37*
G36*
G01*
X166868001Y-94582000D02*
X165967999Y-94582000D01*
G75*
G02*
X165718000Y-94332001I0J249999D01*
G01*
X165718000Y-93681999D01*
G75*
G02*
X165967999Y-93432000I249999J0D01*
G01*
X166868001Y-93432000D01*
G75*
G02*
X167118000Y-93681999I0J-249999D01*
G01*
X167118000Y-94332001D01*
G75*
G02*
X166868001Y-94582000I-249999J0D01*
G01*
G37*
G36*
G01*
X158946001Y-87198000D02*
X158045999Y-87198000D01*
G75*
G02*
X157796000Y-86948001I0J249999D01*
G01*
X157796000Y-86297999D01*
G75*
G02*
X158045999Y-86048000I249999J0D01*
G01*
X158946001Y-86048000D01*
G75*
G02*
X159196000Y-86297999I0J-249999D01*
G01*
X159196000Y-86948001D01*
G75*
G02*
X158946001Y-87198000I-249999J0D01*
G01*
G37*
G36*
G01*
X158946001Y-89248000D02*
X158045999Y-89248000D01*
G75*
G02*
X157796000Y-88998001I0J249999D01*
G01*
X157796000Y-88347999D01*
G75*
G02*
X158045999Y-88098000I249999J0D01*
G01*
X158946001Y-88098000D01*
G75*
G02*
X159196000Y-88347999I0J-249999D01*
G01*
X159196000Y-88998001D01*
G75*
G02*
X158946001Y-89248000I-249999J0D01*
G01*
G37*
M02*
