M48
; DRILL file {KiCad 5.1.6-c6e7f7d~86~ubuntu19.10.1} date Thu May 21 12:39:11 2020
; FORMAT={-:-/ absolute / inch / decimal}
; #@! TF.CreationDate,2020-05-21T12:39:11+02:00
; #@! TF.GenerationSoftware,Kicad,Pcbnew,5.1.6-c6e7f7d~86~ubuntu19.10.1
; #@! TF.FileFunction,Plated,1,2,PTH
FMAT,2
INCH
T1C0.0118
T2C0.0157
T3C0.0236
T4C0.0276
T5C0.0300
T6C0.0315
T7C0.0394
T8C0.0433
T9C0.1260
%
G90
G05
T1
X5.4637Y-4.9848
X4.7058Y-5.5261
X5.3554Y-5.5261
X4.9223Y-5.7427
X5.3554Y-4.9848
X4.8141Y-5.7427
X5.2471Y-5.0931
X5.4637Y-5.6344
X4.8141Y-4.9848
X5.2471Y-5.4179
X5.0306Y-5.3096
X5.3554Y-5.6344
X5.3554Y-5.4179
X4.9223Y-4.9848
X5.0306Y-5.7427
X4.7058Y-5.0931
X5.4637Y-5.5261
X4.8141Y-5.3096
X4.7058Y-5.4179
X5.4637Y-5.3096
X5.2471Y-5.5261
X5.0306Y-5.2013
X5.0306Y-4.9848
X5.0306Y-5.6344
X4.9223Y-5.2013
X5.4637Y-5.0931
X5.0306Y-5.5261
X5.4637Y-5.2013
X5.0306Y-5.0931
X4.9223Y-5.4179
X5.2471Y-5.2013
X5.3554Y-5.2013
X4.9223Y-5.6344
X5.1389Y-5.2013
X5.3554Y-5.3096
X5.1389Y-5.0931
X5.1389Y-4.9848
X5.1389Y-5.6344
X5.2471Y-5.7427
X5.2471Y-5.6344
X4.8141Y-5.4179
X4.7058Y-5.2013
X4.7058Y-5.3096
X4.8141Y-5.0931
X5.2471Y-5.3096
X5.4637Y-5.4179
X5.1389Y-5.3096
X5.2471Y-4.9848
X5.4637Y-5.7427
X5.3554Y-5.0931
X5.1389Y-5.4179
X4.8141Y-5.6344
X5.0306Y-5.4179
X4.7058Y-5.7427
X4.9223Y-5.3096
X5.3554Y-5.7427
X4.7058Y-4.9848
X4.9223Y-5.0931
X5.1389Y-5.5261
X4.8141Y-5.2013
X5.1389Y-5.7427
X4.7058Y-5.6344
X4.8141Y-5.5261
X4.9223Y-5.5261
T2
X5.08Y-4.16
X5.24Y-3.96
X5.24Y-4.0
X5.42Y-3.96
X5.42Y-4.0
X6.32Y-3.56
T3
X4.76Y-4.24
X4.81Y-3.155
X5.32Y-4.24
X5.615Y-3.655
X5.665Y-3.705
X5.735Y-3.535
X5.79Y-3.58
T4
X4.5219Y-3.0611
X4.6219Y-2.9611
X4.7219Y-3.0611
T5
X3.5519Y-3.473
X3.5519Y-3.5911
X3.5519Y-3.7092
T6
X5.17Y-3.25
X5.17Y-3.85
X5.27Y-3.25
X5.27Y-3.85
X5.37Y-3.25
X5.37Y-3.85
X5.47Y-3.25
X5.47Y-3.85
X5.57Y-3.25
X5.57Y-3.85
X5.67Y-3.25
X5.67Y-3.85
X5.77Y-3.25
X5.77Y-3.85
X5.87Y-3.25
X5.87Y-3.85
X5.97Y-3.25
X5.97Y-3.85
X6.07Y-3.25
X6.07Y-3.85
X6.17Y-3.25
X6.17Y-3.85
X6.27Y-3.25
X6.27Y-3.85
X6.37Y-3.25
X6.37Y-3.85
X6.47Y-3.25
X6.47Y-3.85
X6.57Y-3.25
X6.57Y-3.85
T7
X6.385Y-4.025
X6.64Y-4.02
X5.26Y-3.715
X5.36Y-3.715
T8
X3.7841Y-6.4028
X3.7841Y-6.58
X4.04Y-6.4028
X4.04Y-6.58
X6.1341Y-6.4
X6.1341Y-6.5772
X6.39Y-6.4
X6.39Y-6.5772
T9
X6.56Y-4.62
X3.54Y-6.51
X6.62Y-6.51
X6.62Y-3.03
X3.54Y-3.03
T7
G00X3.542Y-3.3627
M15
G01X3.5617Y-3.3627
M16
G05
G00X3.542Y-3.8194
M15
G01X3.5617Y-3.8194
M16
G05
G00X3.7369Y-3.1698
M15
G01X3.7369Y-3.2485
M16
G05
G00X3.9613Y-3.0911
M15
G01X3.8825Y-3.0911
M16
G05
G00X3.9613Y-3.3273
M15
G01X3.8825Y-3.3273
M16
G05
T0
M30
