G04 #@! TF.GenerationSoftware,KiCad,Pcbnew,5.1.6-c6e7f7d~86~ubuntu19.10.1*
G04 #@! TF.CreationDate,2020-05-21T12:39:08+02:00*
G04 #@! TF.ProjectId,MicroDroplet,4d696372-6f44-4726-9f70-6c65742e6b69,rev?*
G04 #@! TF.SameCoordinates,Original*
G04 #@! TF.FileFunction,Legend,Top*
G04 #@! TF.FilePolarity,Positive*
%FSLAX46Y46*%
G04 Gerber Fmt 4.6, Leading zero omitted, Abs format (unit mm)*
G04 Created by KiCad (PCBNEW 5.1.6-c6e7f7d~86~ubuntu19.10.1) date 2020-05-21 12:39:08*
%MOMM*%
%LPD*%
G01*
G04 APERTURE LIST*
%ADD10C,0.150000*%
%ADD11C,0.300000*%
%ADD12C,0.400000*%
%ADD13C,0.120000*%
%ADD14C,0.010000*%
%ADD15C,0.381000*%
%ADD16C,0.152400*%
G04 APERTURE END LIST*
D10*
X166417904Y-103846380D02*
X166751238Y-104846380D01*
X167084571Y-103846380D01*
X167179809Y-104941619D02*
X167941714Y-104941619D01*
X168703619Y-103894000D02*
X168608380Y-103846380D01*
X168465523Y-103846380D01*
X168322666Y-103894000D01*
X168227428Y-103989238D01*
X168179809Y-104084476D01*
X168132190Y-104274952D01*
X168132190Y-104417809D01*
X168179809Y-104608285D01*
X168227428Y-104703523D01*
X168322666Y-104798761D01*
X168465523Y-104846380D01*
X168560761Y-104846380D01*
X168703619Y-104798761D01*
X168751238Y-104751142D01*
X168751238Y-104417809D01*
X168560761Y-104417809D01*
X169179809Y-104846380D02*
X169179809Y-103846380D01*
X169751238Y-104846380D01*
X169751238Y-103846380D01*
X170227428Y-104846380D02*
X170227428Y-103846380D01*
X170465523Y-103846380D01*
X170608380Y-103894000D01*
X170703619Y-103989238D01*
X170751238Y-104084476D01*
X170798857Y-104274952D01*
X170798857Y-104417809D01*
X170751238Y-104608285D01*
X170703619Y-104703523D01*
X170608380Y-104798761D01*
X170465523Y-104846380D01*
X170227428Y-104846380D01*
X161417095Y-104021000D02*
X161321857Y-103973380D01*
X161179000Y-103973380D01*
X161036142Y-104021000D01*
X160940904Y-104116238D01*
X160893285Y-104211476D01*
X160845666Y-104401952D01*
X160845666Y-104544809D01*
X160893285Y-104735285D01*
X160940904Y-104830523D01*
X161036142Y-104925761D01*
X161179000Y-104973380D01*
X161274238Y-104973380D01*
X161417095Y-104925761D01*
X161464714Y-104878142D01*
X161464714Y-104544809D01*
X161274238Y-104544809D01*
X161893285Y-104973380D02*
X161893285Y-103973380D01*
X162464714Y-104973380D01*
X162464714Y-103973380D01*
X162940904Y-104973380D02*
X162940904Y-103973380D01*
X163179000Y-103973380D01*
X163321857Y-104021000D01*
X163417095Y-104116238D01*
X163464714Y-104211476D01*
X163512333Y-104401952D01*
X163512333Y-104544809D01*
X163464714Y-104735285D01*
X163417095Y-104830523D01*
X163321857Y-104925761D01*
X163179000Y-104973380D01*
X162940904Y-104973380D01*
X131112047Y-90892380D02*
X130635857Y-90892380D01*
X130588238Y-91368571D01*
X130635857Y-91320952D01*
X130731095Y-91273333D01*
X130969190Y-91273333D01*
X131064428Y-91320952D01*
X131112047Y-91368571D01*
X131159666Y-91463809D01*
X131159666Y-91701904D01*
X131112047Y-91797142D01*
X131064428Y-91844761D01*
X130969190Y-91892380D01*
X130731095Y-91892380D01*
X130635857Y-91844761D01*
X130588238Y-91797142D01*
X131445380Y-90892380D02*
X131778714Y-91892380D01*
X132112047Y-90892380D01*
X133207285Y-91511428D02*
X133969190Y-91511428D01*
X134445380Y-91225714D02*
X135207285Y-91511428D01*
X134445380Y-91797142D01*
X136302523Y-90892380D02*
X136635857Y-91892380D01*
X136969190Y-90892380D01*
X137302523Y-91892380D02*
X137302523Y-90892380D01*
X137778714Y-91892380D02*
X137778714Y-90892380D01*
X138350142Y-91892380D01*
X138350142Y-90892380D01*
X104950666Y-99528380D02*
X105188761Y-100528380D01*
X105379238Y-99814095D01*
X105569714Y-100528380D01*
X105807809Y-99528380D01*
X106617333Y-100528380D02*
X106617333Y-100004571D01*
X106569714Y-99909333D01*
X106474476Y-99861714D01*
X106284000Y-99861714D01*
X106188761Y-99909333D01*
X106617333Y-100480761D02*
X106522095Y-100528380D01*
X106284000Y-100528380D01*
X106188761Y-100480761D01*
X106141142Y-100385523D01*
X106141142Y-100290285D01*
X106188761Y-100195047D01*
X106284000Y-100147428D01*
X106522095Y-100147428D01*
X106617333Y-100099809D01*
X107093523Y-100528380D02*
X107093523Y-99861714D01*
X107093523Y-100052190D02*
X107141142Y-99956952D01*
X107188761Y-99909333D01*
X107284000Y-99861714D01*
X107379238Y-99861714D01*
X107712571Y-99861714D02*
X107712571Y-100528380D01*
X107712571Y-99956952D02*
X107760190Y-99909333D01*
X107855428Y-99861714D01*
X107998285Y-99861714D01*
X108093523Y-99909333D01*
X108141142Y-100004571D01*
X108141142Y-100528380D01*
X108617333Y-100528380D02*
X108617333Y-99861714D01*
X108617333Y-99528380D02*
X108569714Y-99576000D01*
X108617333Y-99623619D01*
X108664952Y-99576000D01*
X108617333Y-99528380D01*
X108617333Y-99623619D01*
X109093523Y-99861714D02*
X109093523Y-100528380D01*
X109093523Y-99956952D02*
X109141142Y-99909333D01*
X109236380Y-99861714D01*
X109379238Y-99861714D01*
X109474476Y-99909333D01*
X109522095Y-100004571D01*
X109522095Y-100528380D01*
X110426857Y-99861714D02*
X110426857Y-100671238D01*
X110379238Y-100766476D01*
X110331619Y-100814095D01*
X110236380Y-100861714D01*
X110093523Y-100861714D01*
X109998285Y-100814095D01*
X110426857Y-100480761D02*
X110331619Y-100528380D01*
X110141142Y-100528380D01*
X110045904Y-100480761D01*
X109998285Y-100433142D01*
X109950666Y-100337904D01*
X109950666Y-100052190D01*
X109998285Y-99956952D01*
X110045904Y-99909333D01*
X110141142Y-99861714D01*
X110331619Y-99861714D01*
X110426857Y-99909333D01*
X110903047Y-100433142D02*
X110950666Y-100480761D01*
X110903047Y-100528380D01*
X110855428Y-100480761D01*
X110903047Y-100433142D01*
X110903047Y-100528380D01*
X110903047Y-99909333D02*
X110950666Y-99956952D01*
X110903047Y-100004571D01*
X110855428Y-99956952D01*
X110903047Y-99909333D01*
X110903047Y-100004571D01*
X112141142Y-100528380D02*
X112141142Y-99528380D01*
X112569714Y-100528380D02*
X112569714Y-100004571D01*
X112522095Y-99909333D01*
X112426857Y-99861714D01*
X112284000Y-99861714D01*
X112188761Y-99909333D01*
X112141142Y-99956952D01*
X113045904Y-100528380D02*
X113045904Y-99861714D01*
X113045904Y-99528380D02*
X112998285Y-99576000D01*
X113045904Y-99623619D01*
X113093523Y-99576000D01*
X113045904Y-99528380D01*
X113045904Y-99623619D01*
X113950666Y-99861714D02*
X113950666Y-100671238D01*
X113903047Y-100766476D01*
X113855428Y-100814095D01*
X113760190Y-100861714D01*
X113617333Y-100861714D01*
X113522095Y-100814095D01*
X113950666Y-100480761D02*
X113855428Y-100528380D01*
X113664952Y-100528380D01*
X113569714Y-100480761D01*
X113522095Y-100433142D01*
X113474476Y-100337904D01*
X113474476Y-100052190D01*
X113522095Y-99956952D01*
X113569714Y-99909333D01*
X113664952Y-99861714D01*
X113855428Y-99861714D01*
X113950666Y-99909333D01*
X114426857Y-100528380D02*
X114426857Y-99528380D01*
X114855428Y-100528380D02*
X114855428Y-100004571D01*
X114807809Y-99909333D01*
X114712571Y-99861714D01*
X114569714Y-99861714D01*
X114474476Y-99909333D01*
X114426857Y-99956952D01*
X115998285Y-99861714D02*
X116236380Y-100528380D01*
X116474476Y-99861714D01*
X116998285Y-100528380D02*
X116903047Y-100480761D01*
X116855428Y-100433142D01*
X116807809Y-100337904D01*
X116807809Y-100052190D01*
X116855428Y-99956952D01*
X116903047Y-99909333D01*
X116998285Y-99861714D01*
X117141142Y-99861714D01*
X117236380Y-99909333D01*
X117284000Y-99956952D01*
X117331619Y-100052190D01*
X117331619Y-100337904D01*
X117284000Y-100433142D01*
X117236380Y-100480761D01*
X117141142Y-100528380D01*
X116998285Y-100528380D01*
X117903047Y-100528380D02*
X117807809Y-100480761D01*
X117760190Y-100385523D01*
X117760190Y-99528380D01*
X118141142Y-99861714D02*
X118522095Y-99861714D01*
X118284000Y-99528380D02*
X118284000Y-100385523D01*
X118331619Y-100480761D01*
X118426857Y-100528380D01*
X118522095Y-100528380D01*
X119284000Y-100528380D02*
X119284000Y-100004571D01*
X119236380Y-99909333D01*
X119141142Y-99861714D01*
X118950666Y-99861714D01*
X118855428Y-99909333D01*
X119284000Y-100480761D02*
X119188761Y-100528380D01*
X118950666Y-100528380D01*
X118855428Y-100480761D01*
X118807809Y-100385523D01*
X118807809Y-100290285D01*
X118855428Y-100195047D01*
X118950666Y-100147428D01*
X119188761Y-100147428D01*
X119284000Y-100099809D01*
X120188761Y-99861714D02*
X120188761Y-100671238D01*
X120141142Y-100766476D01*
X120093523Y-100814095D01*
X119998285Y-100861714D01*
X119855428Y-100861714D01*
X119760190Y-100814095D01*
X120188761Y-100480761D02*
X120093523Y-100528380D01*
X119903047Y-100528380D01*
X119807809Y-100480761D01*
X119760190Y-100433142D01*
X119712571Y-100337904D01*
X119712571Y-100052190D01*
X119760190Y-99956952D01*
X119807809Y-99909333D01*
X119903047Y-99861714D01*
X120093523Y-99861714D01*
X120188761Y-99909333D01*
X121045904Y-100480761D02*
X120950666Y-100528380D01*
X120760190Y-100528380D01*
X120664952Y-100480761D01*
X120617333Y-100385523D01*
X120617333Y-100004571D01*
X120664952Y-99909333D01*
X120760190Y-99861714D01*
X120950666Y-99861714D01*
X121045904Y-99909333D01*
X121093523Y-100004571D01*
X121093523Y-100099809D01*
X120617333Y-100195047D01*
X121522095Y-100433142D02*
X121569714Y-100480761D01*
X121522095Y-100528380D01*
X121474476Y-100480761D01*
X121522095Y-100433142D01*
X121522095Y-100528380D01*
X121522095Y-100147428D02*
X121474476Y-99576000D01*
X121522095Y-99528380D01*
X121569714Y-99576000D01*
X121522095Y-100147428D01*
X121522095Y-99528380D01*
X113586095Y-82256380D02*
X113395619Y-82256380D01*
X113300380Y-82304000D01*
X113252761Y-82351619D01*
X113157523Y-82494476D01*
X113109904Y-82684952D01*
X113109904Y-83065904D01*
X113157523Y-83161142D01*
X113205142Y-83208761D01*
X113300380Y-83256380D01*
X113490857Y-83256380D01*
X113586095Y-83208761D01*
X113633714Y-83161142D01*
X113681333Y-83065904D01*
X113681333Y-82827809D01*
X113633714Y-82732571D01*
X113586095Y-82684952D01*
X113490857Y-82637333D01*
X113300380Y-82637333D01*
X113205142Y-82684952D01*
X113157523Y-82732571D01*
X113109904Y-82827809D01*
X114586095Y-82256380D02*
X114109904Y-82256380D01*
X114062285Y-82732571D01*
X114109904Y-82684952D01*
X114205142Y-82637333D01*
X114443238Y-82637333D01*
X114538476Y-82684952D01*
X114586095Y-82732571D01*
X114633714Y-82827809D01*
X114633714Y-83065904D01*
X114586095Y-83161142D01*
X114538476Y-83208761D01*
X114443238Y-83256380D01*
X114205142Y-83256380D01*
X114109904Y-83208761D01*
X114062285Y-83161142D01*
X115062285Y-82875428D02*
X115824190Y-82875428D01*
X116252761Y-82351619D02*
X116300380Y-82304000D01*
X116395619Y-82256380D01*
X116633714Y-82256380D01*
X116728952Y-82304000D01*
X116776571Y-82351619D01*
X116824190Y-82446857D01*
X116824190Y-82542095D01*
X116776571Y-82684952D01*
X116205142Y-83256380D01*
X116824190Y-83256380D01*
X117728952Y-82256380D02*
X117252761Y-82256380D01*
X117205142Y-82732571D01*
X117252761Y-82684952D01*
X117348000Y-82637333D01*
X117586095Y-82637333D01*
X117681333Y-82684952D01*
X117728952Y-82732571D01*
X117776571Y-82827809D01*
X117776571Y-83065904D01*
X117728952Y-83161142D01*
X117681333Y-83208761D01*
X117586095Y-83256380D01*
X117348000Y-83256380D01*
X117252761Y-83208761D01*
X117205142Y-83161142D01*
X118395619Y-82256380D02*
X118490857Y-82256380D01*
X118586095Y-82304000D01*
X118633714Y-82351619D01*
X118681333Y-82446857D01*
X118728952Y-82637333D01*
X118728952Y-82875428D01*
X118681333Y-83065904D01*
X118633714Y-83161142D01*
X118586095Y-83208761D01*
X118490857Y-83256380D01*
X118395619Y-83256380D01*
X118300380Y-83208761D01*
X118252761Y-83161142D01*
X118205142Y-83065904D01*
X118157523Y-82875428D01*
X118157523Y-82637333D01*
X118205142Y-82446857D01*
X118252761Y-82351619D01*
X118300380Y-82304000D01*
X118395619Y-82256380D01*
X119014666Y-82256380D02*
X119348000Y-83256380D01*
X119681333Y-82256380D01*
X120014666Y-83256380D02*
X120014666Y-82256380D01*
X120252761Y-82256380D01*
X120395619Y-82304000D01*
X120490857Y-82399238D01*
X120538476Y-82494476D01*
X120586095Y-82684952D01*
X120586095Y-82827809D01*
X120538476Y-83018285D01*
X120490857Y-83113523D01*
X120395619Y-83208761D01*
X120252761Y-83256380D01*
X120014666Y-83256380D01*
X121586095Y-83161142D02*
X121538476Y-83208761D01*
X121395619Y-83256380D01*
X121300380Y-83256380D01*
X121157523Y-83208761D01*
X121062285Y-83113523D01*
X121014666Y-83018285D01*
X120967047Y-82827809D01*
X120967047Y-82684952D01*
X121014666Y-82494476D01*
X121062285Y-82399238D01*
X121157523Y-82304000D01*
X121300380Y-82256380D01*
X121395619Y-82256380D01*
X121538476Y-82304000D01*
X121586095Y-82351619D01*
X135477809Y-167790761D02*
X135382571Y-167838380D01*
X135192095Y-167838380D01*
X135096857Y-167790761D01*
X135049238Y-167743142D01*
X135001619Y-167647904D01*
X135001619Y-167362190D01*
X135049238Y-167266952D01*
X135096857Y-167219333D01*
X135192095Y-167171714D01*
X135382571Y-167171714D01*
X135477809Y-167219333D01*
X135906380Y-167838380D02*
X135906380Y-166838380D01*
X136334952Y-167838380D02*
X136334952Y-167314571D01*
X136287333Y-167219333D01*
X136192095Y-167171714D01*
X136049238Y-167171714D01*
X135954000Y-167219333D01*
X135906380Y-167266952D01*
X137239714Y-167838380D02*
X137239714Y-167314571D01*
X137192095Y-167219333D01*
X137096857Y-167171714D01*
X136906380Y-167171714D01*
X136811142Y-167219333D01*
X137239714Y-167790761D02*
X137144476Y-167838380D01*
X136906380Y-167838380D01*
X136811142Y-167790761D01*
X136763523Y-167695523D01*
X136763523Y-167600285D01*
X136811142Y-167505047D01*
X136906380Y-167457428D01*
X137144476Y-167457428D01*
X137239714Y-167409809D01*
X137715904Y-167838380D02*
X137715904Y-167171714D01*
X137715904Y-167362190D02*
X137763523Y-167266952D01*
X137811142Y-167219333D01*
X137906380Y-167171714D01*
X138001619Y-167171714D01*
X138477809Y-167838380D02*
X138382571Y-167790761D01*
X138334952Y-167695523D01*
X138334952Y-166838380D01*
X139239714Y-167790761D02*
X139144476Y-167838380D01*
X138954000Y-167838380D01*
X138858761Y-167790761D01*
X138811142Y-167695523D01*
X138811142Y-167314571D01*
X138858761Y-167219333D01*
X138954000Y-167171714D01*
X139144476Y-167171714D01*
X139239714Y-167219333D01*
X139287333Y-167314571D01*
X139287333Y-167409809D01*
X138811142Y-167505047D01*
X139668285Y-167790761D02*
X139763523Y-167838380D01*
X139954000Y-167838380D01*
X140049238Y-167790761D01*
X140096857Y-167695523D01*
X140096857Y-167647904D01*
X140049238Y-167552666D01*
X139954000Y-167505047D01*
X139811142Y-167505047D01*
X139715904Y-167457428D01*
X139668285Y-167362190D01*
X139668285Y-167314571D01*
X139715904Y-167219333D01*
X139811142Y-167171714D01*
X139954000Y-167171714D01*
X140049238Y-167219333D01*
X140668285Y-167838380D02*
X140573047Y-167790761D01*
X140525428Y-167695523D01*
X140525428Y-166838380D01*
X141477809Y-167838380D02*
X141477809Y-167314571D01*
X141430190Y-167219333D01*
X141334952Y-167171714D01*
X141144476Y-167171714D01*
X141049238Y-167219333D01*
X141477809Y-167790761D02*
X141382571Y-167838380D01*
X141144476Y-167838380D01*
X141049238Y-167790761D01*
X141001619Y-167695523D01*
X141001619Y-167600285D01*
X141049238Y-167505047D01*
X141144476Y-167457428D01*
X141382571Y-167457428D01*
X141477809Y-167409809D01*
X141954000Y-167838380D02*
X141954000Y-166838380D01*
X141954000Y-167219333D02*
X142049238Y-167171714D01*
X142239714Y-167171714D01*
X142334952Y-167219333D01*
X142382571Y-167266952D01*
X142430190Y-167362190D01*
X142430190Y-167647904D01*
X142382571Y-167743142D01*
X142334952Y-167790761D01*
X142239714Y-167838380D01*
X142049238Y-167838380D01*
X141954000Y-167790761D01*
X142811142Y-167790761D02*
X142906380Y-167838380D01*
X143096857Y-167838380D01*
X143192095Y-167790761D01*
X143239714Y-167695523D01*
X143239714Y-167647904D01*
X143192095Y-167552666D01*
X143096857Y-167505047D01*
X142954000Y-167505047D01*
X142858761Y-167457428D01*
X142811142Y-167362190D01*
X142811142Y-167314571D01*
X142858761Y-167219333D01*
X142954000Y-167171714D01*
X143096857Y-167171714D01*
X143192095Y-167219333D01*
X143668285Y-167743142D02*
X143715904Y-167790761D01*
X143668285Y-167838380D01*
X143620666Y-167790761D01*
X143668285Y-167743142D01*
X143668285Y-167838380D01*
X144001619Y-167171714D02*
X144382571Y-167171714D01*
X144144476Y-167838380D02*
X144144476Y-166981238D01*
X144192095Y-166886000D01*
X144287333Y-166838380D01*
X144382571Y-166838380D01*
X144715904Y-167838380D02*
X144715904Y-167171714D01*
X144715904Y-167362190D02*
X144763523Y-167266952D01*
X144811142Y-167219333D01*
X144906380Y-167171714D01*
X145001619Y-167171714D01*
X93892952Y-93416380D02*
X93892952Y-92416380D01*
X93892952Y-92892571D02*
X94464380Y-92892571D01*
X94464380Y-93416380D02*
X94464380Y-92416380D01*
X94797714Y-92416380D02*
X95131047Y-93416380D01*
X95464380Y-92416380D01*
X95559619Y-93511619D02*
X96321523Y-93511619D01*
X96702476Y-93416380D02*
X96607238Y-93368761D01*
X96559619Y-93321142D01*
X96512000Y-93225904D01*
X96512000Y-92940190D01*
X96559619Y-92844952D01*
X96607238Y-92797333D01*
X96702476Y-92749714D01*
X96845333Y-92749714D01*
X96940571Y-92797333D01*
X96988190Y-92844952D01*
X97035809Y-92940190D01*
X97035809Y-93225904D01*
X96988190Y-93321142D01*
X96940571Y-93368761D01*
X96845333Y-93416380D01*
X96702476Y-93416380D01*
X97321523Y-92749714D02*
X97702476Y-92749714D01*
X97464380Y-93416380D02*
X97464380Y-92559238D01*
X97512000Y-92464000D01*
X97607238Y-92416380D01*
X97702476Y-92416380D01*
X97892952Y-92749714D02*
X98273904Y-92749714D01*
X98035809Y-93416380D02*
X98035809Y-92559238D01*
X98083428Y-92464000D01*
X98178666Y-92416380D01*
X98273904Y-92416380D01*
X94012000Y-89860380D02*
X94012000Y-88860380D01*
X94012000Y-89336571D02*
X94583428Y-89336571D01*
X94583428Y-89860380D02*
X94583428Y-88860380D01*
X94916761Y-88860380D02*
X95250095Y-89860380D01*
X95583428Y-88860380D01*
X95678666Y-89955619D02*
X96440571Y-89955619D01*
X96821523Y-89860380D02*
X96726285Y-89812761D01*
X96678666Y-89765142D01*
X96631047Y-89669904D01*
X96631047Y-89384190D01*
X96678666Y-89288952D01*
X96726285Y-89241333D01*
X96821523Y-89193714D01*
X96964380Y-89193714D01*
X97059619Y-89241333D01*
X97107238Y-89288952D01*
X97154857Y-89384190D01*
X97154857Y-89669904D01*
X97107238Y-89765142D01*
X97059619Y-89812761D01*
X96964380Y-89860380D01*
X96821523Y-89860380D01*
X97583428Y-89193714D02*
X97583428Y-89860380D01*
X97583428Y-89288952D02*
X97631047Y-89241333D01*
X97726285Y-89193714D01*
X97869142Y-89193714D01*
X97964380Y-89241333D01*
X98012000Y-89336571D01*
X98012000Y-89860380D01*
D11*
X107358571Y-82525714D02*
X105858571Y-82525714D01*
X105858571Y-82168571D01*
X105930000Y-81954285D01*
X106072857Y-81811428D01*
X106215714Y-81740000D01*
X106501428Y-81668571D01*
X106715714Y-81668571D01*
X107001428Y-81740000D01*
X107144285Y-81811428D01*
X107287142Y-81954285D01*
X107358571Y-82168571D01*
X107358571Y-82525714D01*
X107215714Y-80168571D02*
X107287142Y-80240000D01*
X107358571Y-80454285D01*
X107358571Y-80597142D01*
X107287142Y-80811428D01*
X107144285Y-80954285D01*
X107001428Y-81025714D01*
X106715714Y-81097142D01*
X106501428Y-81097142D01*
X106215714Y-81025714D01*
X106072857Y-80954285D01*
X105930000Y-80811428D01*
X105858571Y-80597142D01*
X105858571Y-80454285D01*
X105930000Y-80240000D01*
X106001428Y-80168571D01*
X107358571Y-77597142D02*
X107358571Y-78454285D01*
X107358571Y-78025714D02*
X105858571Y-78025714D01*
X106072857Y-78168571D01*
X106215714Y-78311428D01*
X106287142Y-78454285D01*
X106001428Y-77025714D02*
X105930000Y-76954285D01*
X105858571Y-76811428D01*
X105858571Y-76454285D01*
X105930000Y-76311428D01*
X106001428Y-76240000D01*
X106144285Y-76168571D01*
X106287142Y-76168571D01*
X106501428Y-76240000D01*
X107358571Y-77097142D01*
X107358571Y-76168571D01*
X105858571Y-75740000D02*
X107358571Y-75240000D01*
X105858571Y-74740000D01*
D12*
X102649142Y-96599428D02*
X102649142Y-98599428D01*
X103601523Y-97647047D02*
X103696761Y-97837523D01*
X103887238Y-97932761D01*
X102649142Y-97647047D02*
X102744380Y-97837523D01*
X102934857Y-97932761D01*
X103315809Y-97932761D01*
X103506285Y-97837523D01*
X103601523Y-97647047D01*
X103601523Y-96599428D01*
X104744380Y-97932761D02*
X104744380Y-95932761D01*
X105220571Y-95932761D01*
X105506285Y-96028000D01*
X105696761Y-96218476D01*
X105792000Y-96408952D01*
X105887238Y-96789904D01*
X105887238Y-97075619D01*
X105792000Y-97456571D01*
X105696761Y-97647047D01*
X105506285Y-97837523D01*
X105220571Y-97932761D01*
X104744380Y-97932761D01*
X106744380Y-97932761D02*
X106744380Y-96599428D01*
X106744380Y-96980380D02*
X106839619Y-96789904D01*
X106934857Y-96694666D01*
X107125333Y-96599428D01*
X107315809Y-96599428D01*
X108268190Y-97932761D02*
X108077714Y-97837523D01*
X107982476Y-97742285D01*
X107887238Y-97551809D01*
X107887238Y-96980380D01*
X107982476Y-96789904D01*
X108077714Y-96694666D01*
X108268190Y-96599428D01*
X108553904Y-96599428D01*
X108744380Y-96694666D01*
X108839619Y-96789904D01*
X108934857Y-96980380D01*
X108934857Y-97551809D01*
X108839619Y-97742285D01*
X108744380Y-97837523D01*
X108553904Y-97932761D01*
X108268190Y-97932761D01*
X109792000Y-96599428D02*
X109792000Y-98599428D01*
X109792000Y-96694666D02*
X109982476Y-96599428D01*
X110363428Y-96599428D01*
X110553904Y-96694666D01*
X110649142Y-96789904D01*
X110744380Y-96980380D01*
X110744380Y-97551809D01*
X110649142Y-97742285D01*
X110553904Y-97837523D01*
X110363428Y-97932761D01*
X109982476Y-97932761D01*
X109792000Y-97837523D01*
X111887238Y-97932761D02*
X111696761Y-97837523D01*
X111601523Y-97647047D01*
X111601523Y-95932761D01*
X113411047Y-97837523D02*
X113220571Y-97932761D01*
X112839619Y-97932761D01*
X112649142Y-97837523D01*
X112553904Y-97647047D01*
X112553904Y-96885142D01*
X112649142Y-96694666D01*
X112839619Y-96599428D01*
X113220571Y-96599428D01*
X113411047Y-96694666D01*
X113506285Y-96885142D01*
X113506285Y-97075619D01*
X112553904Y-97266095D01*
X114077714Y-96599428D02*
X114839619Y-96599428D01*
X114363428Y-95932761D02*
X114363428Y-97647047D01*
X114458666Y-97837523D01*
X114649142Y-97932761D01*
X114839619Y-97932761D01*
X117030095Y-97932761D02*
X117030095Y-96599428D01*
X117030095Y-96980380D02*
X117125333Y-96789904D01*
X117220571Y-96694666D01*
X117411047Y-96599428D01*
X117601523Y-96599428D01*
X119030095Y-97837523D02*
X118839619Y-97932761D01*
X118458666Y-97932761D01*
X118268190Y-97837523D01*
X118172952Y-97647047D01*
X118172952Y-96885142D01*
X118268190Y-96694666D01*
X118458666Y-96599428D01*
X118839619Y-96599428D01*
X119030095Y-96694666D01*
X119125333Y-96885142D01*
X119125333Y-97075619D01*
X118172952Y-97266095D01*
X119792000Y-96599428D02*
X120268190Y-97932761D01*
X120744380Y-96599428D01*
X121506285Y-97742285D02*
X121601523Y-97837523D01*
X121506285Y-97932761D01*
X121411047Y-97837523D01*
X121506285Y-97742285D01*
X121506285Y-97932761D01*
X125030095Y-97932761D02*
X123887238Y-97932761D01*
X124458666Y-97932761D02*
X124458666Y-95932761D01*
X124268190Y-96218476D01*
X124077714Y-96408952D01*
X123887238Y-96504190D01*
D13*
X163379000Y-102235000D02*
G75*
G03*
X163379000Y-102235000I-1200000J0D01*
G01*
X132274000Y-95691000D02*
X132274000Y-94361000D01*
X133604000Y-95691000D02*
X132274000Y-95691000D01*
X134874000Y-95691000D02*
X134874000Y-93031000D01*
X134874000Y-93031000D02*
X137474000Y-93031000D01*
X134874000Y-95691000D02*
X137474000Y-95691000D01*
X137474000Y-95691000D02*
X137474000Y-93031000D01*
D14*
G36*
X132612960Y-158574154D02*
G01*
X132740800Y-158574277D01*
X132834782Y-158577616D01*
X132900105Y-158588618D01*
X132941968Y-158611735D01*
X132965571Y-158651417D01*
X132976113Y-158712114D01*
X132978792Y-158798275D01*
X132978769Y-158887255D01*
X132978769Y-159139525D01*
X133164892Y-159289227D01*
X133351015Y-159438928D01*
X133345623Y-159724579D01*
X133340230Y-160010230D01*
X132622192Y-160015356D01*
X131904154Y-160020481D01*
X131904197Y-159722279D01*
X131904241Y-159424077D01*
X132079231Y-159287307D01*
X132254221Y-159150538D01*
X132255033Y-158901423D01*
X132255694Y-158785857D01*
X132260332Y-158701281D01*
X132274232Y-158642862D01*
X132302677Y-158605769D01*
X132350950Y-158585172D01*
X132424336Y-158576240D01*
X132528117Y-158574142D01*
X132612960Y-158574154D01*
G37*
X132612960Y-158574154D02*
X132740800Y-158574277D01*
X132834782Y-158577616D01*
X132900105Y-158588618D01*
X132941968Y-158611735D01*
X132965571Y-158651417D01*
X132976113Y-158712114D01*
X132978792Y-158798275D01*
X132978769Y-158887255D01*
X132978769Y-159139525D01*
X133164892Y-159289227D01*
X133351015Y-159438928D01*
X133345623Y-159724579D01*
X133340230Y-160010230D01*
X132622192Y-160015356D01*
X131904154Y-160020481D01*
X131904197Y-159722279D01*
X131904241Y-159424077D01*
X132079231Y-159287307D01*
X132254221Y-159150538D01*
X132255033Y-158901423D01*
X132255694Y-158785857D01*
X132260332Y-158701281D01*
X132274232Y-158642862D01*
X132302677Y-158605769D01*
X132350950Y-158585172D01*
X132424336Y-158576240D01*
X132528117Y-158574142D01*
X132612960Y-158574154D01*
G36*
X131160274Y-158625635D02*
G01*
X131177658Y-158651796D01*
X131189271Y-158683141D01*
X131196242Y-158727704D01*
X131199703Y-158793523D01*
X131200783Y-158888632D01*
X131200813Y-158913827D01*
X131200857Y-159150538D01*
X131375846Y-159287307D01*
X131550836Y-159424077D01*
X131551649Y-159722038D01*
X131552461Y-160020000D01*
X130106615Y-160020000D01*
X130107428Y-159722038D01*
X130108240Y-159424077D01*
X130283230Y-159287307D01*
X130458219Y-159150538D01*
X130458263Y-158913827D01*
X130458977Y-158811328D01*
X130461827Y-158739858D01*
X130467944Y-158691380D01*
X130478457Y-158657858D01*
X130494498Y-158631257D01*
X130498802Y-158625635D01*
X130539297Y-158574154D01*
X131119779Y-158574154D01*
X131160274Y-158625635D01*
G37*
X131160274Y-158625635D02*
X131177658Y-158651796D01*
X131189271Y-158683141D01*
X131196242Y-158727704D01*
X131199703Y-158793523D01*
X131200783Y-158888632D01*
X131200813Y-158913827D01*
X131200857Y-159150538D01*
X131375846Y-159287307D01*
X131550836Y-159424077D01*
X131551649Y-159722038D01*
X131552461Y-160020000D01*
X130106615Y-160020000D01*
X130107428Y-159722038D01*
X130108240Y-159424077D01*
X130283230Y-159287307D01*
X130458219Y-159150538D01*
X130458263Y-158913827D01*
X130458977Y-158811328D01*
X130461827Y-158739858D01*
X130467944Y-158691380D01*
X130478457Y-158657858D01*
X130494498Y-158631257D01*
X130498802Y-158625635D01*
X130539297Y-158574154D01*
X131119779Y-158574154D01*
X131160274Y-158625635D01*
G36*
X129041769Y-158574154D02*
G01*
X129168736Y-158574301D01*
X129261876Y-158577766D01*
X129326420Y-158589084D01*
X129367600Y-158612788D01*
X129390647Y-158653412D01*
X129400791Y-158715491D01*
X129403263Y-158803559D01*
X129403230Y-158887460D01*
X129403230Y-159139936D01*
X129579077Y-159280737D01*
X129754923Y-159421537D01*
X129754923Y-160020000D01*
X129045025Y-160020000D01*
X128882177Y-160019653D01*
X128731774Y-160018667D01*
X128598264Y-160017120D01*
X128486092Y-160015095D01*
X128399705Y-160012670D01*
X128343549Y-160009925D01*
X128322102Y-160006974D01*
X128317433Y-159983736D01*
X128313505Y-159928798D01*
X128310648Y-159849535D01*
X128309193Y-159753324D01*
X128309077Y-159716030D01*
X128309077Y-159438111D01*
X128680307Y-159139525D01*
X128680307Y-158887255D01*
X128680479Y-158777275D01*
X128684481Y-158696596D01*
X128697544Y-158640688D01*
X128724901Y-158605017D01*
X128771781Y-158585055D01*
X128843417Y-158576268D01*
X128945039Y-158574126D01*
X129041769Y-158574154D01*
G37*
X129041769Y-158574154D02*
X129168736Y-158574301D01*
X129261876Y-158577766D01*
X129326420Y-158589084D01*
X129367600Y-158612788D01*
X129390647Y-158653412D01*
X129400791Y-158715491D01*
X129403263Y-158803559D01*
X129403230Y-158887460D01*
X129403230Y-159139936D01*
X129579077Y-159280737D01*
X129754923Y-159421537D01*
X129754923Y-160020000D01*
X129045025Y-160020000D01*
X128882177Y-160019653D01*
X128731774Y-160018667D01*
X128598264Y-160017120D01*
X128486092Y-160015095D01*
X128399705Y-160012670D01*
X128343549Y-160009925D01*
X128322102Y-160006974D01*
X128317433Y-159983736D01*
X128313505Y-159928798D01*
X128310648Y-159849535D01*
X128309193Y-159753324D01*
X128309077Y-159716030D01*
X128309077Y-159438111D01*
X128680307Y-159139525D01*
X128680307Y-158887255D01*
X128680479Y-158777275D01*
X128684481Y-158696596D01*
X128697544Y-158640688D01*
X128724901Y-158605017D01*
X128771781Y-158585055D01*
X128843417Y-158576268D01*
X128945039Y-158574126D01*
X129041769Y-158574154D01*
G36*
X127378075Y-158574337D02*
G01*
X127471462Y-158578074D01*
X127536474Y-158590142D01*
X127578452Y-158615317D01*
X127602738Y-158658378D01*
X127614673Y-158724102D01*
X127619599Y-158817266D01*
X127621851Y-158905886D01*
X127628240Y-159155488D01*
X127803099Y-159295497D01*
X127977958Y-159435507D01*
X127972556Y-159722869D01*
X127967154Y-160010230D01*
X127249115Y-160015356D01*
X126531077Y-160020481D01*
X126531889Y-159722279D01*
X126532702Y-159424077D01*
X126707691Y-159287307D01*
X126882681Y-159150538D01*
X126882725Y-158901423D01*
X126882954Y-158787385D01*
X126887051Y-158703457D01*
X126900202Y-158645030D01*
X126927593Y-158607496D01*
X126974409Y-158586247D01*
X127045836Y-158576673D01*
X127147058Y-158574167D01*
X127250971Y-158574154D01*
X127378075Y-158574337D01*
G37*
X127378075Y-158574337D02*
X127471462Y-158578074D01*
X127536474Y-158590142D01*
X127578452Y-158615317D01*
X127602738Y-158658378D01*
X127614673Y-158724102D01*
X127619599Y-158817266D01*
X127621851Y-158905886D01*
X127628240Y-159155488D01*
X127803099Y-159295497D01*
X127977958Y-159435507D01*
X127972556Y-159722869D01*
X127967154Y-160010230D01*
X127249115Y-160015356D01*
X126531077Y-160020481D01*
X126531889Y-159722279D01*
X126532702Y-159424077D01*
X126707691Y-159287307D01*
X126882681Y-159150538D01*
X126882725Y-158901423D01*
X126882954Y-158787385D01*
X126887051Y-158703457D01*
X126900202Y-158645030D01*
X126927593Y-158607496D01*
X126974409Y-158586247D01*
X127045836Y-158576673D01*
X127147058Y-158574167D01*
X127250971Y-158574154D01*
X127378075Y-158574337D01*
G36*
X125462884Y-158574154D02*
G01*
X125590449Y-158574361D01*
X125684180Y-158578101D01*
X125749302Y-158590051D01*
X125791041Y-158614889D01*
X125814622Y-158657293D01*
X125825271Y-158721940D01*
X125828215Y-158813507D01*
X125828505Y-158901423D01*
X125829317Y-159150538D01*
X126004307Y-159287307D01*
X126179296Y-159424077D01*
X126179340Y-159722038D01*
X126179384Y-160020000D01*
X125469487Y-160020000D01*
X125306639Y-160019653D01*
X125156236Y-160018667D01*
X125022726Y-160017120D01*
X124910554Y-160015095D01*
X124824167Y-160012670D01*
X124768011Y-160009925D01*
X124746564Y-160006974D01*
X124741906Y-159983745D01*
X124737985Y-159928795D01*
X124735128Y-159849475D01*
X124733662Y-159753139D01*
X124733538Y-159714519D01*
X124733538Y-159435090D01*
X124919154Y-159285796D01*
X125104769Y-159136503D01*
X125104769Y-158887664D01*
X125104815Y-158777073D01*
X125108454Y-158696072D01*
X125120936Y-158640066D01*
X125147509Y-158604459D01*
X125193424Y-158584654D01*
X125263931Y-158576056D01*
X125364279Y-158574071D01*
X125462884Y-158574154D01*
G37*
X125462884Y-158574154D02*
X125590449Y-158574361D01*
X125684180Y-158578101D01*
X125749302Y-158590051D01*
X125791041Y-158614889D01*
X125814622Y-158657293D01*
X125825271Y-158721940D01*
X125828215Y-158813507D01*
X125828505Y-158901423D01*
X125829317Y-159150538D01*
X126004307Y-159287307D01*
X126179296Y-159424077D01*
X126179340Y-159722038D01*
X126179384Y-160020000D01*
X125469487Y-160020000D01*
X125306639Y-160019653D01*
X125156236Y-160018667D01*
X125022726Y-160017120D01*
X124910554Y-160015095D01*
X124824167Y-160012670D01*
X124768011Y-160009925D01*
X124746564Y-160006974D01*
X124741906Y-159983745D01*
X124737985Y-159928795D01*
X124735128Y-159849475D01*
X124733662Y-159753139D01*
X124733538Y-159714519D01*
X124733538Y-159435090D01*
X124919154Y-159285796D01*
X125104769Y-159136503D01*
X125104769Y-158887664D01*
X125104815Y-158777073D01*
X125108454Y-158696072D01*
X125120936Y-158640066D01*
X125147509Y-158604459D01*
X125193424Y-158584654D01*
X125263931Y-158576056D01*
X125364279Y-158574071D01*
X125462884Y-158574154D01*
G36*
X129420151Y-160331234D02*
G01*
X129780697Y-160331462D01*
X130136734Y-160331836D01*
X130486080Y-160332356D01*
X130826558Y-160333020D01*
X131155987Y-160333831D01*
X131472189Y-160334787D01*
X131772984Y-160335888D01*
X132056192Y-160337135D01*
X132319635Y-160338528D01*
X132561132Y-160340065D01*
X132778505Y-160341749D01*
X132969574Y-160343578D01*
X133132161Y-160345552D01*
X133264084Y-160347672D01*
X133363166Y-160349938D01*
X133427227Y-160352349D01*
X133452659Y-160354541D01*
X133606773Y-160404483D01*
X133745966Y-160486827D01*
X133864220Y-160596493D01*
X133955521Y-160728399D01*
X133992952Y-160810935D01*
X134034388Y-160921685D01*
X134029232Y-163601881D01*
X134024077Y-166282077D01*
X133972781Y-166389538D01*
X133882929Y-166534533D01*
X133766182Y-166652008D01*
X133625525Y-166739624D01*
X133463945Y-166795043D01*
X133451615Y-166797722D01*
X133419358Y-166800379D01*
X133350290Y-166802859D01*
X133246580Y-166805163D01*
X133110397Y-166807292D01*
X132943909Y-166809247D01*
X132749285Y-166811031D01*
X132528694Y-166812644D01*
X132284305Y-166814088D01*
X132018286Y-166815365D01*
X131732807Y-166816476D01*
X131430037Y-166817422D01*
X131112143Y-166818205D01*
X130781295Y-166818826D01*
X130439662Y-166819287D01*
X130089412Y-166819589D01*
X129732714Y-166819733D01*
X129371738Y-166819722D01*
X129008651Y-166819556D01*
X128645623Y-166819237D01*
X128284822Y-166818766D01*
X127928418Y-166818145D01*
X127578579Y-166817376D01*
X127237474Y-166816459D01*
X126907271Y-166815396D01*
X126590140Y-166814189D01*
X126288249Y-166812839D01*
X126003767Y-166811347D01*
X125738863Y-166809715D01*
X125495706Y-166807945D01*
X125276465Y-166806037D01*
X125083307Y-166803994D01*
X124918403Y-166801816D01*
X124783921Y-166799506D01*
X124682029Y-166797064D01*
X124614897Y-166794492D01*
X124584799Y-166791817D01*
X124431775Y-166735631D01*
X124295277Y-166647845D01*
X124181189Y-166533614D01*
X124095392Y-166398093D01*
X124071319Y-166341789D01*
X124065501Y-166325895D01*
X124060259Y-166309562D01*
X124055562Y-166290773D01*
X124051382Y-166267514D01*
X124047687Y-166237769D01*
X124044447Y-166199523D01*
X124041634Y-166150760D01*
X124039216Y-166089464D01*
X124037164Y-166013621D01*
X124035448Y-165921215D01*
X124034038Y-165810231D01*
X124032903Y-165678653D01*
X124032014Y-165524465D01*
X124031341Y-165345652D01*
X124030854Y-165140199D01*
X124030522Y-164906091D01*
X124030316Y-164641311D01*
X124030206Y-164343845D01*
X124030162Y-164011677D01*
X124030154Y-163642791D01*
X124030154Y-163576000D01*
X124030157Y-163286110D01*
X124889846Y-163286110D01*
X124889846Y-163885428D01*
X125132722Y-163891906D01*
X125250569Y-163896772D01*
X125337320Y-163906124D01*
X125400930Y-163922978D01*
X125449352Y-163950352D01*
X125490539Y-163991261D01*
X125527704Y-164041717D01*
X125550009Y-164081123D01*
X125568237Y-164130102D01*
X125582755Y-164192592D01*
X125593933Y-164272530D01*
X125602139Y-164373853D01*
X125607740Y-164500498D01*
X125611106Y-164656403D01*
X125612605Y-164845504D01*
X125612769Y-164951001D01*
X125613222Y-165137190D01*
X125614716Y-165289170D01*
X125617449Y-165411797D01*
X125621623Y-165509932D01*
X125627438Y-165588430D01*
X125635093Y-165652151D01*
X125643638Y-165700476D01*
X125693128Y-165875303D01*
X125764340Y-166020172D01*
X125859359Y-166136809D01*
X125980269Y-166226936D01*
X126129156Y-166292275D01*
X126308102Y-166334550D01*
X126428717Y-166349379D01*
X126507403Y-166354694D01*
X126614142Y-166359545D01*
X126737908Y-166363552D01*
X126867679Y-166366334D01*
X126946269Y-166367275D01*
X127293077Y-166370000D01*
X127293077Y-165764307D01*
X126985346Y-165763841D01*
X126825962Y-165761815D01*
X126700317Y-165755189D01*
X126603185Y-165742337D01*
X126529341Y-165721633D01*
X126473560Y-165691447D01*
X126430616Y-165650154D01*
X126395284Y-165596127D01*
X126385280Y-165576976D01*
X126374591Y-165552892D01*
X126365884Y-165524681D01*
X126358841Y-165487897D01*
X126353141Y-165438097D01*
X126348466Y-165370834D01*
X126344496Y-165281664D01*
X126340912Y-165166143D01*
X126337894Y-165040586D01*
X128197991Y-165040586D01*
X128247231Y-165291484D01*
X128296470Y-165542381D01*
X128400167Y-165526120D01*
X128471317Y-165511767D01*
X128560809Y-165489325D01*
X128650055Y-165463480D01*
X128655585Y-165461737D01*
X128833544Y-165391757D01*
X128995366Y-165297860D01*
X129150590Y-165174078D01*
X129218093Y-165109769D01*
X129363768Y-164942095D01*
X129472992Y-164764473D01*
X129547074Y-164573520D01*
X129587322Y-164365852D01*
X129595044Y-164138085D01*
X129594935Y-164134971D01*
X129584089Y-163988660D01*
X129561364Y-163871995D01*
X129523987Y-163776623D01*
X129469188Y-163694188D01*
X129436422Y-163657326D01*
X129332020Y-163575244D01*
X129209189Y-163522384D01*
X129075695Y-163498973D01*
X128939309Y-163505238D01*
X128807798Y-163541407D01*
X128688931Y-163607708D01*
X128655818Y-163634456D01*
X128568060Y-163727258D01*
X128511657Y-163827454D01*
X128482625Y-163944375D01*
X128476423Y-164054692D01*
X128479171Y-164144141D01*
X128488751Y-164210191D01*
X128508333Y-164268347D01*
X128528881Y-164311102D01*
X128595524Y-164410925D01*
X128681269Y-164496971D01*
X128777529Y-164562985D01*
X128875713Y-164602715D01*
X128941459Y-164611538D01*
X128969134Y-164623630D01*
X128966193Y-164659797D01*
X128932672Y-164719880D01*
X128909884Y-164751673D01*
X128830033Y-164830315D01*
X128718871Y-164899284D01*
X128583707Y-164954863D01*
X128436077Y-164992562D01*
X128357146Y-165007444D01*
X128289062Y-165020691D01*
X128244278Y-165029871D01*
X128238880Y-165031082D01*
X128197991Y-165040586D01*
X126337894Y-165040586D01*
X126337394Y-165019826D01*
X126334170Y-164865538D01*
X126330178Y-164682371D01*
X126326140Y-164533778D01*
X126321772Y-164415254D01*
X126316788Y-164322296D01*
X126310905Y-164250402D01*
X126303839Y-164195068D01*
X126295306Y-164151791D01*
X126287311Y-164123077D01*
X126239737Y-163994451D01*
X126185831Y-163894004D01*
X126119564Y-163810838D01*
X126108058Y-163799052D01*
X126050987Y-163752156D01*
X125976292Y-163704287D01*
X125895578Y-163661501D01*
X125820450Y-163629854D01*
X125762511Y-163615404D01*
X125755576Y-163615092D01*
X125713238Y-163609864D01*
X125706415Y-163596005D01*
X125733214Y-163576184D01*
X125791741Y-163553073D01*
X125801769Y-163549909D01*
X125957079Y-163484239D01*
X126085187Y-163390861D01*
X126186940Y-163268921D01*
X126263189Y-163117566D01*
X126280399Y-163068828D01*
X126292024Y-163030090D01*
X126301474Y-162989748D01*
X126309090Y-162942968D01*
X126315215Y-162884919D01*
X126320193Y-162810769D01*
X126324366Y-162715686D01*
X126328076Y-162594838D01*
X126331666Y-162443392D01*
X126334503Y-162306000D01*
X126337563Y-162161953D01*
X128481563Y-162161953D01*
X128510151Y-162305724D01*
X128570096Y-162431548D01*
X128659313Y-162535819D01*
X128775719Y-162614933D01*
X128859540Y-162649414D01*
X128958230Y-162667925D01*
X129074149Y-162669161D01*
X129189992Y-162654135D01*
X129287307Y-162624371D01*
X129410856Y-162551039D01*
X129508524Y-162453777D01*
X129560788Y-162369270D01*
X129588137Y-162285111D01*
X129603903Y-162179712D01*
X129607656Y-162067350D01*
X129598967Y-161962298D01*
X129577407Y-161878830D01*
X129575656Y-161874733D01*
X129503862Y-161757956D01*
X129404949Y-161664045D01*
X129285317Y-161595770D01*
X129151361Y-161555902D01*
X129009479Y-161547212D01*
X128873034Y-161570399D01*
X128737044Y-161627999D01*
X128627065Y-161712620D01*
X128545892Y-161821130D01*
X128496321Y-161950395D01*
X128486414Y-162003841D01*
X128481563Y-162161953D01*
X126337563Y-162161953D01*
X126338483Y-162118703D01*
X126342638Y-161966229D01*
X126347599Y-161844325D01*
X126353997Y-161748739D01*
X126362463Y-161675219D01*
X126373628Y-161619513D01*
X126388123Y-161577368D01*
X126406580Y-161544533D01*
X126429629Y-161516756D01*
X126455289Y-161492142D01*
X126496328Y-161462399D01*
X126548572Y-161440115D01*
X126617613Y-161424378D01*
X126709039Y-161414277D01*
X126828442Y-161408901D01*
X126975577Y-161407339D01*
X127293077Y-161407230D01*
X127293077Y-161403504D01*
X130790461Y-161403504D01*
X131147038Y-161410667D01*
X131280417Y-161413953D01*
X131380763Y-161418103D01*
X131454118Y-161423713D01*
X131506526Y-161431376D01*
X131544029Y-161441689D01*
X131566931Y-161452014D01*
X131612996Y-161481775D01*
X131650704Y-161519115D01*
X131680850Y-161567929D01*
X131704229Y-161632110D01*
X131721635Y-161715553D01*
X131733862Y-161822152D01*
X131741705Y-161955800D01*
X131745960Y-162120391D01*
X131747419Y-162319820D01*
X131747439Y-162336604D01*
X131748326Y-162522907D01*
X131751075Y-162675540D01*
X131756311Y-162799892D01*
X131764658Y-162901348D01*
X131776739Y-162985298D01*
X131793180Y-163057129D01*
X131814605Y-163122228D01*
X131841637Y-163185983D01*
X131847230Y-163197909D01*
X131927030Y-163322196D01*
X132035590Y-163426105D01*
X132165396Y-163503781D01*
X132294923Y-163546582D01*
X132354281Y-163561343D01*
X132376399Y-163574707D01*
X132361008Y-163589751D01*
X132307835Y-163609553D01*
X132288846Y-163615533D01*
X132127199Y-163681966D01*
X131995644Y-163772475D01*
X131892486Y-163888409D01*
X131844204Y-163969384D01*
X131816990Y-164029297D01*
X131795233Y-164094256D01*
X131778368Y-164169260D01*
X131765834Y-164259313D01*
X131757068Y-164369414D01*
X131751506Y-164504566D01*
X131748588Y-164669769D01*
X131747778Y-164826461D01*
X131746402Y-165029789D01*
X131742391Y-165197947D01*
X131734965Y-165334798D01*
X131723339Y-165444204D01*
X131706731Y-165530030D01*
X131684360Y-165596137D01*
X131655441Y-165646389D01*
X131619193Y-165684648D01*
X131574832Y-165714778D01*
X131566931Y-165719102D01*
X131536288Y-165731842D01*
X131494607Y-165741540D01*
X131435910Y-165748788D01*
X131354221Y-165754179D01*
X131243563Y-165758305D01*
X131147038Y-165760727D01*
X130790461Y-165768592D01*
X130790461Y-166370000D01*
X131107961Y-166369496D01*
X131235012Y-166368044D01*
X131366746Y-166364403D01*
X131490111Y-166359067D01*
X131592057Y-166352532D01*
X131620455Y-166350035D01*
X131800938Y-166325087D01*
X131950160Y-166287153D01*
X132074492Y-166233779D01*
X132180302Y-166162510D01*
X132234009Y-166113701D01*
X132283585Y-166061605D01*
X132325210Y-166010306D01*
X132359645Y-165955866D01*
X132387655Y-165894349D01*
X132410001Y-165821817D01*
X132427446Y-165734333D01*
X132440753Y-165627959D01*
X132450685Y-165498759D01*
X132458005Y-165342794D01*
X132463476Y-165156128D01*
X132467861Y-164934824D01*
X132468379Y-164904017D01*
X132480538Y-164170726D01*
X132529913Y-164073632D01*
X132573343Y-164003231D01*
X132625550Y-163952372D01*
X132693113Y-163918309D01*
X132782610Y-163898297D01*
X132900619Y-163889588D01*
X132973140Y-163888615D01*
X133193692Y-163888615D01*
X133193692Y-163282923D01*
X132973140Y-163282923D01*
X132837922Y-163278880D01*
X132734603Y-163264934D01*
X132656667Y-163238361D01*
X132597602Y-163196436D01*
X132550892Y-163136435D01*
X132529384Y-163097307D01*
X132516894Y-163071706D01*
X132506671Y-163047041D01*
X132498415Y-163019171D01*
X132491822Y-162983953D01*
X132486592Y-162937246D01*
X132482421Y-162874908D01*
X132479008Y-162792797D01*
X132476051Y-162686771D01*
X132473248Y-162552688D01*
X132470297Y-162386406D01*
X132468124Y-162257154D01*
X132464379Y-162049782D01*
X132460386Y-161877162D01*
X132455663Y-161734964D01*
X132449727Y-161618865D01*
X132442097Y-161524537D01*
X132432289Y-161447654D01*
X132419823Y-161383890D01*
X132404215Y-161328920D01*
X132384984Y-161278415D01*
X132361647Y-161228052D01*
X132351063Y-161206994D01*
X132284963Y-161109713D01*
X132192870Y-161017717D01*
X132087287Y-160943004D01*
X132061503Y-160929066D01*
X131991793Y-160896553D01*
X131921325Y-160870676D01*
X131844221Y-160850547D01*
X131754598Y-160835278D01*
X131646576Y-160823980D01*
X131514276Y-160815767D01*
X131351815Y-160809750D01*
X131254500Y-160807218D01*
X130790461Y-160796345D01*
X130790461Y-161403504D01*
X127293077Y-161403504D01*
X127293077Y-160796109D01*
X126819269Y-160807317D01*
X126636990Y-160812619D01*
X126488090Y-160819580D01*
X126366878Y-160829037D01*
X126267666Y-160841828D01*
X126184764Y-160858790D01*
X126112482Y-160880760D01*
X126045130Y-160908576D01*
X126008048Y-160926711D01*
X125890146Y-161008137D01*
X125788995Y-161120580D01*
X125708386Y-161258191D01*
X125652109Y-161415122D01*
X125633317Y-161504923D01*
X125628233Y-161556352D01*
X125623588Y-161640825D01*
X125619548Y-161752309D01*
X125616282Y-161884772D01*
X125613958Y-162032182D01*
X125612745Y-162188505D01*
X125612611Y-162247384D01*
X125611839Y-162454907D01*
X125609357Y-162627372D01*
X125604422Y-162768788D01*
X125596288Y-162883162D01*
X125584211Y-162974501D01*
X125567446Y-163046814D01*
X125545248Y-163104107D01*
X125516873Y-163150389D01*
X125481576Y-163189668D01*
X125438612Y-163225950D01*
X125429476Y-163232869D01*
X125401243Y-163250309D01*
X125366129Y-163262436D01*
X125316208Y-163270499D01*
X125243551Y-163275747D01*
X125140232Y-163279429D01*
X125132722Y-163279632D01*
X124889846Y-163286110D01*
X124030157Y-163286110D01*
X124030159Y-163200644D01*
X124030195Y-162862350D01*
X124030291Y-162559102D01*
X124030479Y-162288885D01*
X124030787Y-162049683D01*
X124031245Y-161839481D01*
X124031885Y-161656263D01*
X124032735Y-161498014D01*
X124033825Y-161362718D01*
X124035186Y-161248360D01*
X124036848Y-161152925D01*
X124038841Y-161074397D01*
X124041194Y-161010761D01*
X124043938Y-160960001D01*
X124047102Y-160920102D01*
X124050717Y-160889049D01*
X124054813Y-160864825D01*
X124059419Y-160845416D01*
X124064566Y-160828806D01*
X124070284Y-160812979D01*
X124071319Y-160810210D01*
X124144517Y-160668472D01*
X124248114Y-160545889D01*
X124376033Y-160447586D01*
X124522203Y-160378688D01*
X124611340Y-160354541D01*
X124643507Y-160352005D01*
X124712570Y-160349614D01*
X124816352Y-160347369D01*
X124952672Y-160345269D01*
X125119351Y-160343315D01*
X125314210Y-160341506D01*
X125535070Y-160339843D01*
X125779751Y-160338325D01*
X126046074Y-160336953D01*
X126331860Y-160335726D01*
X126634929Y-160334645D01*
X126953101Y-160333709D01*
X127284198Y-160332919D01*
X127626040Y-160332275D01*
X127976448Y-160331775D01*
X128333242Y-160331422D01*
X128694244Y-160331214D01*
X129057273Y-160331151D01*
X129420151Y-160331234D01*
G37*
X129420151Y-160331234D02*
X129780697Y-160331462D01*
X130136734Y-160331836D01*
X130486080Y-160332356D01*
X130826558Y-160333020D01*
X131155987Y-160333831D01*
X131472189Y-160334787D01*
X131772984Y-160335888D01*
X132056192Y-160337135D01*
X132319635Y-160338528D01*
X132561132Y-160340065D01*
X132778505Y-160341749D01*
X132969574Y-160343578D01*
X133132161Y-160345552D01*
X133264084Y-160347672D01*
X133363166Y-160349938D01*
X133427227Y-160352349D01*
X133452659Y-160354541D01*
X133606773Y-160404483D01*
X133745966Y-160486827D01*
X133864220Y-160596493D01*
X133955521Y-160728399D01*
X133992952Y-160810935D01*
X134034388Y-160921685D01*
X134029232Y-163601881D01*
X134024077Y-166282077D01*
X133972781Y-166389538D01*
X133882929Y-166534533D01*
X133766182Y-166652008D01*
X133625525Y-166739624D01*
X133463945Y-166795043D01*
X133451615Y-166797722D01*
X133419358Y-166800379D01*
X133350290Y-166802859D01*
X133246580Y-166805163D01*
X133110397Y-166807292D01*
X132943909Y-166809247D01*
X132749285Y-166811031D01*
X132528694Y-166812644D01*
X132284305Y-166814088D01*
X132018286Y-166815365D01*
X131732807Y-166816476D01*
X131430037Y-166817422D01*
X131112143Y-166818205D01*
X130781295Y-166818826D01*
X130439662Y-166819287D01*
X130089412Y-166819589D01*
X129732714Y-166819733D01*
X129371738Y-166819722D01*
X129008651Y-166819556D01*
X128645623Y-166819237D01*
X128284822Y-166818766D01*
X127928418Y-166818145D01*
X127578579Y-166817376D01*
X127237474Y-166816459D01*
X126907271Y-166815396D01*
X126590140Y-166814189D01*
X126288249Y-166812839D01*
X126003767Y-166811347D01*
X125738863Y-166809715D01*
X125495706Y-166807945D01*
X125276465Y-166806037D01*
X125083307Y-166803994D01*
X124918403Y-166801816D01*
X124783921Y-166799506D01*
X124682029Y-166797064D01*
X124614897Y-166794492D01*
X124584799Y-166791817D01*
X124431775Y-166735631D01*
X124295277Y-166647845D01*
X124181189Y-166533614D01*
X124095392Y-166398093D01*
X124071319Y-166341789D01*
X124065501Y-166325895D01*
X124060259Y-166309562D01*
X124055562Y-166290773D01*
X124051382Y-166267514D01*
X124047687Y-166237769D01*
X124044447Y-166199523D01*
X124041634Y-166150760D01*
X124039216Y-166089464D01*
X124037164Y-166013621D01*
X124035448Y-165921215D01*
X124034038Y-165810231D01*
X124032903Y-165678653D01*
X124032014Y-165524465D01*
X124031341Y-165345652D01*
X124030854Y-165140199D01*
X124030522Y-164906091D01*
X124030316Y-164641311D01*
X124030206Y-164343845D01*
X124030162Y-164011677D01*
X124030154Y-163642791D01*
X124030154Y-163576000D01*
X124030157Y-163286110D01*
X124889846Y-163286110D01*
X124889846Y-163885428D01*
X125132722Y-163891906D01*
X125250569Y-163896772D01*
X125337320Y-163906124D01*
X125400930Y-163922978D01*
X125449352Y-163950352D01*
X125490539Y-163991261D01*
X125527704Y-164041717D01*
X125550009Y-164081123D01*
X125568237Y-164130102D01*
X125582755Y-164192592D01*
X125593933Y-164272530D01*
X125602139Y-164373853D01*
X125607740Y-164500498D01*
X125611106Y-164656403D01*
X125612605Y-164845504D01*
X125612769Y-164951001D01*
X125613222Y-165137190D01*
X125614716Y-165289170D01*
X125617449Y-165411797D01*
X125621623Y-165509932D01*
X125627438Y-165588430D01*
X125635093Y-165652151D01*
X125643638Y-165700476D01*
X125693128Y-165875303D01*
X125764340Y-166020172D01*
X125859359Y-166136809D01*
X125980269Y-166226936D01*
X126129156Y-166292275D01*
X126308102Y-166334550D01*
X126428717Y-166349379D01*
X126507403Y-166354694D01*
X126614142Y-166359545D01*
X126737908Y-166363552D01*
X126867679Y-166366334D01*
X126946269Y-166367275D01*
X127293077Y-166370000D01*
X127293077Y-165764307D01*
X126985346Y-165763841D01*
X126825962Y-165761815D01*
X126700317Y-165755189D01*
X126603185Y-165742337D01*
X126529341Y-165721633D01*
X126473560Y-165691447D01*
X126430616Y-165650154D01*
X126395284Y-165596127D01*
X126385280Y-165576976D01*
X126374591Y-165552892D01*
X126365884Y-165524681D01*
X126358841Y-165487897D01*
X126353141Y-165438097D01*
X126348466Y-165370834D01*
X126344496Y-165281664D01*
X126340912Y-165166143D01*
X126337894Y-165040586D01*
X128197991Y-165040586D01*
X128247231Y-165291484D01*
X128296470Y-165542381D01*
X128400167Y-165526120D01*
X128471317Y-165511767D01*
X128560809Y-165489325D01*
X128650055Y-165463480D01*
X128655585Y-165461737D01*
X128833544Y-165391757D01*
X128995366Y-165297860D01*
X129150590Y-165174078D01*
X129218093Y-165109769D01*
X129363768Y-164942095D01*
X129472992Y-164764473D01*
X129547074Y-164573520D01*
X129587322Y-164365852D01*
X129595044Y-164138085D01*
X129594935Y-164134971D01*
X129584089Y-163988660D01*
X129561364Y-163871995D01*
X129523987Y-163776623D01*
X129469188Y-163694188D01*
X129436422Y-163657326D01*
X129332020Y-163575244D01*
X129209189Y-163522384D01*
X129075695Y-163498973D01*
X128939309Y-163505238D01*
X128807798Y-163541407D01*
X128688931Y-163607708D01*
X128655818Y-163634456D01*
X128568060Y-163727258D01*
X128511657Y-163827454D01*
X128482625Y-163944375D01*
X128476423Y-164054692D01*
X128479171Y-164144141D01*
X128488751Y-164210191D01*
X128508333Y-164268347D01*
X128528881Y-164311102D01*
X128595524Y-164410925D01*
X128681269Y-164496971D01*
X128777529Y-164562985D01*
X128875713Y-164602715D01*
X128941459Y-164611538D01*
X128969134Y-164623630D01*
X128966193Y-164659797D01*
X128932672Y-164719880D01*
X128909884Y-164751673D01*
X128830033Y-164830315D01*
X128718871Y-164899284D01*
X128583707Y-164954863D01*
X128436077Y-164992562D01*
X128357146Y-165007444D01*
X128289062Y-165020691D01*
X128244278Y-165029871D01*
X128238880Y-165031082D01*
X128197991Y-165040586D01*
X126337894Y-165040586D01*
X126337394Y-165019826D01*
X126334170Y-164865538D01*
X126330178Y-164682371D01*
X126326140Y-164533778D01*
X126321772Y-164415254D01*
X126316788Y-164322296D01*
X126310905Y-164250402D01*
X126303839Y-164195068D01*
X126295306Y-164151791D01*
X126287311Y-164123077D01*
X126239737Y-163994451D01*
X126185831Y-163894004D01*
X126119564Y-163810838D01*
X126108058Y-163799052D01*
X126050987Y-163752156D01*
X125976292Y-163704287D01*
X125895578Y-163661501D01*
X125820450Y-163629854D01*
X125762511Y-163615404D01*
X125755576Y-163615092D01*
X125713238Y-163609864D01*
X125706415Y-163596005D01*
X125733214Y-163576184D01*
X125791741Y-163553073D01*
X125801769Y-163549909D01*
X125957079Y-163484239D01*
X126085187Y-163390861D01*
X126186940Y-163268921D01*
X126263189Y-163117566D01*
X126280399Y-163068828D01*
X126292024Y-163030090D01*
X126301474Y-162989748D01*
X126309090Y-162942968D01*
X126315215Y-162884919D01*
X126320193Y-162810769D01*
X126324366Y-162715686D01*
X126328076Y-162594838D01*
X126331666Y-162443392D01*
X126334503Y-162306000D01*
X126337563Y-162161953D01*
X128481563Y-162161953D01*
X128510151Y-162305724D01*
X128570096Y-162431548D01*
X128659313Y-162535819D01*
X128775719Y-162614933D01*
X128859540Y-162649414D01*
X128958230Y-162667925D01*
X129074149Y-162669161D01*
X129189992Y-162654135D01*
X129287307Y-162624371D01*
X129410856Y-162551039D01*
X129508524Y-162453777D01*
X129560788Y-162369270D01*
X129588137Y-162285111D01*
X129603903Y-162179712D01*
X129607656Y-162067350D01*
X129598967Y-161962298D01*
X129577407Y-161878830D01*
X129575656Y-161874733D01*
X129503862Y-161757956D01*
X129404949Y-161664045D01*
X129285317Y-161595770D01*
X129151361Y-161555902D01*
X129009479Y-161547212D01*
X128873034Y-161570399D01*
X128737044Y-161627999D01*
X128627065Y-161712620D01*
X128545892Y-161821130D01*
X128496321Y-161950395D01*
X128486414Y-162003841D01*
X128481563Y-162161953D01*
X126337563Y-162161953D01*
X126338483Y-162118703D01*
X126342638Y-161966229D01*
X126347599Y-161844325D01*
X126353997Y-161748739D01*
X126362463Y-161675219D01*
X126373628Y-161619513D01*
X126388123Y-161577368D01*
X126406580Y-161544533D01*
X126429629Y-161516756D01*
X126455289Y-161492142D01*
X126496328Y-161462399D01*
X126548572Y-161440115D01*
X126617613Y-161424378D01*
X126709039Y-161414277D01*
X126828442Y-161408901D01*
X126975577Y-161407339D01*
X127293077Y-161407230D01*
X127293077Y-161403504D01*
X130790461Y-161403504D01*
X131147038Y-161410667D01*
X131280417Y-161413953D01*
X131380763Y-161418103D01*
X131454118Y-161423713D01*
X131506526Y-161431376D01*
X131544029Y-161441689D01*
X131566931Y-161452014D01*
X131612996Y-161481775D01*
X131650704Y-161519115D01*
X131680850Y-161567929D01*
X131704229Y-161632110D01*
X131721635Y-161715553D01*
X131733862Y-161822152D01*
X131741705Y-161955800D01*
X131745960Y-162120391D01*
X131747419Y-162319820D01*
X131747439Y-162336604D01*
X131748326Y-162522907D01*
X131751075Y-162675540D01*
X131756311Y-162799892D01*
X131764658Y-162901348D01*
X131776739Y-162985298D01*
X131793180Y-163057129D01*
X131814605Y-163122228D01*
X131841637Y-163185983D01*
X131847230Y-163197909D01*
X131927030Y-163322196D01*
X132035590Y-163426105D01*
X132165396Y-163503781D01*
X132294923Y-163546582D01*
X132354281Y-163561343D01*
X132376399Y-163574707D01*
X132361008Y-163589751D01*
X132307835Y-163609553D01*
X132288846Y-163615533D01*
X132127199Y-163681966D01*
X131995644Y-163772475D01*
X131892486Y-163888409D01*
X131844204Y-163969384D01*
X131816990Y-164029297D01*
X131795233Y-164094256D01*
X131778368Y-164169260D01*
X131765834Y-164259313D01*
X131757068Y-164369414D01*
X131751506Y-164504566D01*
X131748588Y-164669769D01*
X131747778Y-164826461D01*
X131746402Y-165029789D01*
X131742391Y-165197947D01*
X131734965Y-165334798D01*
X131723339Y-165444204D01*
X131706731Y-165530030D01*
X131684360Y-165596137D01*
X131655441Y-165646389D01*
X131619193Y-165684648D01*
X131574832Y-165714778D01*
X131566931Y-165719102D01*
X131536288Y-165731842D01*
X131494607Y-165741540D01*
X131435910Y-165748788D01*
X131354221Y-165754179D01*
X131243563Y-165758305D01*
X131147038Y-165760727D01*
X130790461Y-165768592D01*
X130790461Y-166370000D01*
X131107961Y-166369496D01*
X131235012Y-166368044D01*
X131366746Y-166364403D01*
X131490111Y-166359067D01*
X131592057Y-166352532D01*
X131620455Y-166350035D01*
X131800938Y-166325087D01*
X131950160Y-166287153D01*
X132074492Y-166233779D01*
X132180302Y-166162510D01*
X132234009Y-166113701D01*
X132283585Y-166061605D01*
X132325210Y-166010306D01*
X132359645Y-165955866D01*
X132387655Y-165894349D01*
X132410001Y-165821817D01*
X132427446Y-165734333D01*
X132440753Y-165627959D01*
X132450685Y-165498759D01*
X132458005Y-165342794D01*
X132463476Y-165156128D01*
X132467861Y-164934824D01*
X132468379Y-164904017D01*
X132480538Y-164170726D01*
X132529913Y-164073632D01*
X132573343Y-164003231D01*
X132625550Y-163952372D01*
X132693113Y-163918309D01*
X132782610Y-163898297D01*
X132900619Y-163889588D01*
X132973140Y-163888615D01*
X133193692Y-163888615D01*
X133193692Y-163282923D01*
X132973140Y-163282923D01*
X132837922Y-163278880D01*
X132734603Y-163264934D01*
X132656667Y-163238361D01*
X132597602Y-163196436D01*
X132550892Y-163136435D01*
X132529384Y-163097307D01*
X132516894Y-163071706D01*
X132506671Y-163047041D01*
X132498415Y-163019171D01*
X132491822Y-162983953D01*
X132486592Y-162937246D01*
X132482421Y-162874908D01*
X132479008Y-162792797D01*
X132476051Y-162686771D01*
X132473248Y-162552688D01*
X132470297Y-162386406D01*
X132468124Y-162257154D01*
X132464379Y-162049782D01*
X132460386Y-161877162D01*
X132455663Y-161734964D01*
X132449727Y-161618865D01*
X132442097Y-161524537D01*
X132432289Y-161447654D01*
X132419823Y-161383890D01*
X132404215Y-161328920D01*
X132384984Y-161278415D01*
X132361647Y-161228052D01*
X132351063Y-161206994D01*
X132284963Y-161109713D01*
X132192870Y-161017717D01*
X132087287Y-160943004D01*
X132061503Y-160929066D01*
X131991793Y-160896553D01*
X131921325Y-160870676D01*
X131844221Y-160850547D01*
X131754598Y-160835278D01*
X131646576Y-160823980D01*
X131514276Y-160815767D01*
X131351815Y-160809750D01*
X131254500Y-160807218D01*
X130790461Y-160796345D01*
X130790461Y-161403504D01*
X127293077Y-161403504D01*
X127293077Y-160796109D01*
X126819269Y-160807317D01*
X126636990Y-160812619D01*
X126488090Y-160819580D01*
X126366878Y-160829037D01*
X126267666Y-160841828D01*
X126184764Y-160858790D01*
X126112482Y-160880760D01*
X126045130Y-160908576D01*
X126008048Y-160926711D01*
X125890146Y-161008137D01*
X125788995Y-161120580D01*
X125708386Y-161258191D01*
X125652109Y-161415122D01*
X125633317Y-161504923D01*
X125628233Y-161556352D01*
X125623588Y-161640825D01*
X125619548Y-161752309D01*
X125616282Y-161884772D01*
X125613958Y-162032182D01*
X125612745Y-162188505D01*
X125612611Y-162247384D01*
X125611839Y-162454907D01*
X125609357Y-162627372D01*
X125604422Y-162768788D01*
X125596288Y-162883162D01*
X125584211Y-162974501D01*
X125567446Y-163046814D01*
X125545248Y-163104107D01*
X125516873Y-163150389D01*
X125481576Y-163189668D01*
X125438612Y-163225950D01*
X125429476Y-163232869D01*
X125401243Y-163250309D01*
X125366129Y-163262436D01*
X125316208Y-163270499D01*
X125243551Y-163275747D01*
X125140232Y-163279429D01*
X125132722Y-163279632D01*
X124889846Y-163286110D01*
X124030157Y-163286110D01*
X124030159Y-163200644D01*
X124030195Y-162862350D01*
X124030291Y-162559102D01*
X124030479Y-162288885D01*
X124030787Y-162049683D01*
X124031245Y-161839481D01*
X124031885Y-161656263D01*
X124032735Y-161498014D01*
X124033825Y-161362718D01*
X124035186Y-161248360D01*
X124036848Y-161152925D01*
X124038841Y-161074397D01*
X124041194Y-161010761D01*
X124043938Y-160960001D01*
X124047102Y-160920102D01*
X124050717Y-160889049D01*
X124054813Y-160864825D01*
X124059419Y-160845416D01*
X124064566Y-160828806D01*
X124070284Y-160812979D01*
X124071319Y-160810210D01*
X124144517Y-160668472D01*
X124248114Y-160545889D01*
X124376033Y-160447586D01*
X124522203Y-160378688D01*
X124611340Y-160354541D01*
X124643507Y-160352005D01*
X124712570Y-160349614D01*
X124816352Y-160347369D01*
X124952672Y-160345269D01*
X125119351Y-160343315D01*
X125314210Y-160341506D01*
X125535070Y-160339843D01*
X125779751Y-160338325D01*
X126046074Y-160336953D01*
X126331860Y-160335726D01*
X126634929Y-160334645D01*
X126953101Y-160333709D01*
X127284198Y-160332919D01*
X127626040Y-160332275D01*
X127976448Y-160331775D01*
X128333242Y-160331422D01*
X128694244Y-160331214D01*
X129057273Y-160331151D01*
X129420151Y-160331234D01*
G36*
X132602654Y-167136644D02*
G01*
X133320692Y-167141769D01*
X133331494Y-167716079D01*
X133145362Y-167865787D01*
X132959230Y-168015496D01*
X132959230Y-168266255D01*
X132959076Y-168375146D01*
X132955147Y-168455197D01*
X132942243Y-168510836D01*
X132915166Y-168546493D01*
X132868714Y-168566598D01*
X132797689Y-168575578D01*
X132696891Y-168577862D01*
X132593421Y-168577846D01*
X132482222Y-168577386D01*
X132403250Y-168575447D01*
X132349659Y-168571187D01*
X132314606Y-168563765D01*
X132291245Y-168552340D01*
X132275384Y-168538769D01*
X132259038Y-168518655D01*
X132247919Y-168492008D01*
X132241009Y-168451472D01*
X132237289Y-168389694D01*
X132235743Y-168299318D01*
X132235495Y-168250577D01*
X132234682Y-168001461D01*
X132059693Y-167864692D01*
X131884703Y-167727923D01*
X131884659Y-167429720D01*
X131884615Y-167131518D01*
X132602654Y-167136644D01*
G37*
X132602654Y-167136644D02*
X133320692Y-167141769D01*
X133331494Y-167716079D01*
X133145362Y-167865787D01*
X132959230Y-168015496D01*
X132959230Y-168266255D01*
X132959076Y-168375146D01*
X132955147Y-168455197D01*
X132942243Y-168510836D01*
X132915166Y-168546493D01*
X132868714Y-168566598D01*
X132797689Y-168575578D01*
X132696891Y-168577862D01*
X132593421Y-168577846D01*
X132482222Y-168577386D01*
X132403250Y-168575447D01*
X132349659Y-168571187D01*
X132314606Y-168563765D01*
X132291245Y-168552340D01*
X132275384Y-168538769D01*
X132259038Y-168518655D01*
X132247919Y-168492008D01*
X132241009Y-168451472D01*
X132237289Y-168389694D01*
X132235743Y-168299318D01*
X132235495Y-168250577D01*
X132234682Y-168001461D01*
X132059693Y-167864692D01*
X131884703Y-167727923D01*
X131884659Y-167429720D01*
X131884615Y-167131518D01*
X132602654Y-167136644D01*
G36*
X131532110Y-167429720D02*
G01*
X131531298Y-167727923D01*
X131181318Y-168001461D01*
X131181274Y-168250577D01*
X131181046Y-168364615D01*
X131176948Y-168448543D01*
X131163797Y-168506969D01*
X131136406Y-168544503D01*
X131089590Y-168565753D01*
X131018164Y-168575326D01*
X130916941Y-168577833D01*
X130813028Y-168577846D01*
X130700025Y-168577481D01*
X130619449Y-168575832D01*
X130564651Y-168572062D01*
X130528983Y-168565340D01*
X130505798Y-168554829D01*
X130488447Y-168539697D01*
X130485759Y-168536781D01*
X130469837Y-168514027D01*
X130458640Y-168482053D01*
X130451073Y-168433571D01*
X130446044Y-168361291D01*
X130442457Y-168257922D01*
X130442149Y-168246114D01*
X130435759Y-167996512D01*
X130086041Y-167716492D01*
X130091444Y-167429130D01*
X130096846Y-167141769D01*
X130814884Y-167136644D01*
X131532923Y-167131518D01*
X131532110Y-167429720D01*
G37*
X131532110Y-167429720D02*
X131531298Y-167727923D01*
X131181318Y-168001461D01*
X131181274Y-168250577D01*
X131181046Y-168364615D01*
X131176948Y-168448543D01*
X131163797Y-168506969D01*
X131136406Y-168544503D01*
X131089590Y-168565753D01*
X131018164Y-168575326D01*
X130916941Y-168577833D01*
X130813028Y-168577846D01*
X130700025Y-168577481D01*
X130619449Y-168575832D01*
X130564651Y-168572062D01*
X130528983Y-168565340D01*
X130505798Y-168554829D01*
X130488447Y-168539697D01*
X130485759Y-168536781D01*
X130469837Y-168514027D01*
X130458640Y-168482053D01*
X130451073Y-168433571D01*
X130446044Y-168361291D01*
X130442457Y-168257922D01*
X130442149Y-168246114D01*
X130435759Y-167996512D01*
X130086041Y-167716492D01*
X130091444Y-167429130D01*
X130096846Y-167141769D01*
X130814884Y-167136644D01*
X131532923Y-167131518D01*
X131532110Y-167429720D01*
G36*
X129027115Y-167136644D02*
G01*
X129745154Y-167141769D01*
X129755938Y-167713071D01*
X129569815Y-167862773D01*
X129383692Y-168012474D01*
X129383692Y-168264744D01*
X129383520Y-168374724D01*
X129379519Y-168455403D01*
X129366455Y-168511312D01*
X129339098Y-168546982D01*
X129292218Y-168566945D01*
X129220582Y-168575732D01*
X129118960Y-168577874D01*
X129022230Y-168577846D01*
X128905200Y-168576913D01*
X128820842Y-168573710D01*
X128762790Y-168567627D01*
X128724676Y-168558055D01*
X128704193Y-168547430D01*
X128686363Y-168532689D01*
X128674217Y-168513218D01*
X128666671Y-168481944D01*
X128662638Y-168431797D01*
X128661034Y-168355705D01*
X128660769Y-168264539D01*
X128660769Y-168012063D01*
X128484923Y-167871263D01*
X128309077Y-167730462D01*
X128309077Y-167131518D01*
X129027115Y-167136644D01*
G37*
X129027115Y-167136644D02*
X129745154Y-167141769D01*
X129755938Y-167713071D01*
X129569815Y-167862773D01*
X129383692Y-168012474D01*
X129383692Y-168264744D01*
X129383520Y-168374724D01*
X129379519Y-168455403D01*
X129366455Y-168511312D01*
X129339098Y-168546982D01*
X129292218Y-168566945D01*
X129220582Y-168575732D01*
X129118960Y-168577874D01*
X129022230Y-168577846D01*
X128905200Y-168576913D01*
X128820842Y-168573710D01*
X128762790Y-168567627D01*
X128724676Y-168558055D01*
X128704193Y-168547430D01*
X128686363Y-168532689D01*
X128674217Y-168513218D01*
X128666671Y-168481944D01*
X128662638Y-168431797D01*
X128661034Y-168355705D01*
X128660769Y-168264539D01*
X128660769Y-168012063D01*
X128484923Y-167871263D01*
X128309077Y-167730462D01*
X128309077Y-167131518D01*
X129027115Y-167136644D01*
G36*
X127956572Y-167429961D02*
G01*
X127955759Y-167727923D01*
X127780769Y-167864692D01*
X127605780Y-168001461D01*
X127605736Y-168238172D01*
X127605022Y-168340671D01*
X127602172Y-168412142D01*
X127596056Y-168460620D01*
X127585542Y-168494142D01*
X127569502Y-168520743D01*
X127565197Y-168526365D01*
X127524702Y-168577846D01*
X126944220Y-168577846D01*
X126903725Y-168526365D01*
X126886341Y-168500203D01*
X126874728Y-168468859D01*
X126867757Y-168424295D01*
X126864297Y-168358476D01*
X126863217Y-168263367D01*
X126863186Y-168238172D01*
X126863143Y-168001461D01*
X126513163Y-167727923D01*
X126512351Y-167429961D01*
X126511538Y-167132000D01*
X127957384Y-167132000D01*
X127956572Y-167429961D01*
G37*
X127956572Y-167429961D02*
X127955759Y-167727923D01*
X127780769Y-167864692D01*
X127605780Y-168001461D01*
X127605736Y-168238172D01*
X127605022Y-168340671D01*
X127602172Y-168412142D01*
X127596056Y-168460620D01*
X127585542Y-168494142D01*
X127569502Y-168520743D01*
X127565197Y-168526365D01*
X127524702Y-168577846D01*
X126944220Y-168577846D01*
X126903725Y-168526365D01*
X126886341Y-168500203D01*
X126874728Y-168468859D01*
X126867757Y-168424295D01*
X126864297Y-168358476D01*
X126863217Y-168263367D01*
X126863186Y-168238172D01*
X126863143Y-168001461D01*
X126513163Y-167727923D01*
X126512351Y-167429961D01*
X126511538Y-167132000D01*
X127957384Y-167132000D01*
X127956572Y-167429961D01*
G36*
X126159802Y-167429720D02*
G01*
X126159758Y-167727923D01*
X125984768Y-167864692D01*
X125809779Y-168001461D01*
X125808966Y-168250577D01*
X125808306Y-168366142D01*
X125803667Y-168450719D01*
X125789767Y-168509138D01*
X125761322Y-168546230D01*
X125713049Y-168566827D01*
X125639664Y-168575759D01*
X125535883Y-168577858D01*
X125451039Y-168577846D01*
X125333181Y-168576942D01*
X125248045Y-168573832D01*
X125189312Y-168567921D01*
X125150659Y-168558612D01*
X125128655Y-168547430D01*
X125110818Y-168532682D01*
X125098670Y-168513201D01*
X125091125Y-168481911D01*
X125087095Y-168431737D01*
X125085494Y-168355604D01*
X125085230Y-168264744D01*
X125085230Y-168012474D01*
X124899107Y-167862773D01*
X124712984Y-167713071D01*
X124718377Y-167427420D01*
X124723769Y-167141769D01*
X125441807Y-167136644D01*
X126159846Y-167131518D01*
X126159802Y-167429720D01*
G37*
X126159802Y-167429720D02*
X126159758Y-167727923D01*
X125984768Y-167864692D01*
X125809779Y-168001461D01*
X125808966Y-168250577D01*
X125808306Y-168366142D01*
X125803667Y-168450719D01*
X125789767Y-168509138D01*
X125761322Y-168546230D01*
X125713049Y-168566827D01*
X125639664Y-168575759D01*
X125535883Y-168577858D01*
X125451039Y-168577846D01*
X125333181Y-168576942D01*
X125248045Y-168573832D01*
X125189312Y-168567921D01*
X125150659Y-168558612D01*
X125128655Y-168547430D01*
X125110818Y-168532682D01*
X125098670Y-168513201D01*
X125091125Y-168481911D01*
X125087095Y-168431737D01*
X125085494Y-168355604D01*
X125085230Y-168264744D01*
X125085230Y-168012474D01*
X124899107Y-167862773D01*
X124712984Y-167713071D01*
X124718377Y-167427420D01*
X124723769Y-167141769D01*
X125441807Y-167136644D01*
X126159846Y-167131518D01*
X126159802Y-167429720D01*
D13*
X169856000Y-102108000D02*
G75*
G03*
X169856000Y-102108000I-1200000J0D01*
G01*
X156447000Y-90050000D02*
X152997000Y-90050000D01*
X156447000Y-90050000D02*
X158397000Y-90050000D01*
X156447000Y-95170000D02*
X154497000Y-95170000D01*
X156447000Y-95170000D02*
X158397000Y-95170000D01*
X93018000Y-85413000D02*
X87418000Y-85413000D01*
X93018000Y-97013000D02*
X93018000Y-85413000D01*
X87418000Y-97013000D02*
X93018000Y-97013000D01*
X87418000Y-85413000D02*
X87418000Y-97013000D01*
X162556000Y-165560000D02*
X162556000Y-164060000D01*
X161306000Y-161560000D02*
X156806000Y-161560000D01*
X155556000Y-164060000D02*
X155556000Y-165560000D01*
X156806000Y-168060000D02*
X161306000Y-168060000D01*
X102866000Y-165632000D02*
X102866000Y-164132000D01*
X101616000Y-161632000D02*
X97116000Y-161632000D01*
X95866000Y-164132000D02*
X95866000Y-165632000D01*
X97116000Y-168132000D02*
X101616000Y-168132000D01*
X163422000Y-92738748D02*
X163422000Y-93261252D01*
X164842000Y-92738748D02*
X164842000Y-93261252D01*
X150468000Y-93237748D02*
X150468000Y-93760252D01*
X151888000Y-93237748D02*
X151888000Y-93760252D01*
X150468000Y-89182748D02*
X150468000Y-89705252D01*
X151888000Y-89182748D02*
X151888000Y-89705252D01*
D15*
X120896000Y-74251000D02*
X120896000Y-81251000D01*
X113896000Y-74251000D02*
X120896000Y-74251000D01*
X114896000Y-80751000D02*
G75*
G03*
X114896000Y-80751000I-500000J0D01*
G01*
X113896000Y-79251000D02*
X115896000Y-81251000D01*
X115896000Y-81251000D02*
X120896000Y-81251000D01*
X113896000Y-79251000D02*
X113896000Y-74251000D01*
D13*
X104216000Y-85413000D02*
X101616000Y-85413000D01*
X104216000Y-70713000D02*
X104216000Y-85413000D01*
X95016000Y-85413000D02*
X95016000Y-83513000D01*
X97716000Y-85413000D02*
X95016000Y-85413000D01*
X95016000Y-70713000D02*
X104216000Y-70713000D01*
X95016000Y-79513000D02*
X95016000Y-70713000D01*
X104416000Y-84563000D02*
X104416000Y-85613000D01*
X103366000Y-85613000D02*
X104416000Y-85613000D01*
X161136000Y-92738748D02*
X161136000Y-93261252D01*
X162556000Y-92738748D02*
X162556000Y-93261252D01*
X167128000Y-93243252D02*
X167128000Y-92720748D01*
X165708000Y-93243252D02*
X165708000Y-92720748D01*
X159206000Y-87909252D02*
X159206000Y-87386748D01*
X157786000Y-87909252D02*
X157786000Y-87386748D01*
D10*
X138223666Y-93813380D02*
X138223666Y-94527666D01*
X138176047Y-94670523D01*
X138080809Y-94765761D01*
X137937952Y-94813380D01*
X137842714Y-94813380D01*
X138652238Y-93908619D02*
X138699857Y-93861000D01*
X138795095Y-93813380D01*
X139033190Y-93813380D01*
X139128428Y-93861000D01*
X139176047Y-93908619D01*
X139223666Y-94003857D01*
X139223666Y-94099095D01*
X139176047Y-94241952D01*
X138604619Y-94813380D01*
X139223666Y-94813380D01*
X154305095Y-88662380D02*
X154305095Y-89471904D01*
X154352714Y-89567142D01*
X154400333Y-89614761D01*
X154495571Y-89662380D01*
X154686047Y-89662380D01*
X154781285Y-89614761D01*
X154828904Y-89567142D01*
X154876523Y-89471904D01*
X154876523Y-88662380D01*
X155876523Y-89662380D02*
X155305095Y-89662380D01*
X155590809Y-89662380D02*
X155590809Y-88662380D01*
X155495571Y-88805238D01*
X155400333Y-88900476D01*
X155305095Y-88948095D01*
X88796761Y-92773333D02*
X88844380Y-92630476D01*
X88844380Y-92392380D01*
X88796761Y-92297142D01*
X88749142Y-92249523D01*
X88653904Y-92201904D01*
X88558666Y-92201904D01*
X88463428Y-92249523D01*
X88415809Y-92297142D01*
X88368190Y-92392380D01*
X88320571Y-92582857D01*
X88272952Y-92678095D01*
X88225333Y-92725714D01*
X88130095Y-92773333D01*
X88034857Y-92773333D01*
X87939619Y-92725714D01*
X87892000Y-92678095D01*
X87844380Y-92582857D01*
X87844380Y-92344761D01*
X87892000Y-92201904D01*
X87844380Y-91868571D02*
X88844380Y-91630476D01*
X88130095Y-91440000D01*
X88844380Y-91249523D01*
X87844380Y-91011428D01*
X87844380Y-90725714D02*
X87844380Y-90106666D01*
X88225333Y-90440000D01*
X88225333Y-90297142D01*
X88272952Y-90201904D01*
X88320571Y-90154285D01*
X88415809Y-90106666D01*
X88653904Y-90106666D01*
X88749142Y-90154285D01*
X88796761Y-90201904D01*
X88844380Y-90297142D01*
X88844380Y-90582857D01*
X88796761Y-90678095D01*
X88749142Y-90725714D01*
X149137904Y-165504761D02*
X149280761Y-165552380D01*
X149518857Y-165552380D01*
X149614095Y-165504761D01*
X149661714Y-165457142D01*
X149709333Y-165361904D01*
X149709333Y-165266666D01*
X149661714Y-165171428D01*
X149614095Y-165123809D01*
X149518857Y-165076190D01*
X149328380Y-165028571D01*
X149233142Y-164980952D01*
X149185523Y-164933333D01*
X149137904Y-164838095D01*
X149137904Y-164742857D01*
X149185523Y-164647619D01*
X149233142Y-164600000D01*
X149328380Y-164552380D01*
X149566476Y-164552380D01*
X149709333Y-164600000D01*
X150042666Y-164552380D02*
X150280761Y-165552380D01*
X150471238Y-164838095D01*
X150661714Y-165552380D01*
X150899809Y-164552380D01*
X151042666Y-165647619D02*
X151804571Y-165647619D01*
X152376000Y-165028571D02*
X152518857Y-165076190D01*
X152566476Y-165123809D01*
X152614095Y-165219047D01*
X152614095Y-165361904D01*
X152566476Y-165457142D01*
X152518857Y-165504761D01*
X152423619Y-165552380D01*
X152042666Y-165552380D01*
X152042666Y-164552380D01*
X152376000Y-164552380D01*
X152471238Y-164600000D01*
X152518857Y-164647619D01*
X152566476Y-164742857D01*
X152566476Y-164838095D01*
X152518857Y-164933333D01*
X152471238Y-164980952D01*
X152376000Y-165028571D01*
X152042666Y-165028571D01*
X105013333Y-165504761D02*
X105156190Y-165552380D01*
X105394285Y-165552380D01*
X105489523Y-165504761D01*
X105537142Y-165457142D01*
X105584761Y-165361904D01*
X105584761Y-165266666D01*
X105537142Y-165171428D01*
X105489523Y-165123809D01*
X105394285Y-165076190D01*
X105203809Y-165028571D01*
X105108571Y-164980952D01*
X105060952Y-164933333D01*
X105013333Y-164838095D01*
X105013333Y-164742857D01*
X105060952Y-164647619D01*
X105108571Y-164600000D01*
X105203809Y-164552380D01*
X105441904Y-164552380D01*
X105584761Y-164600000D01*
X105918095Y-164552380D02*
X106156190Y-165552380D01*
X106346666Y-164838095D01*
X106537142Y-165552380D01*
X106775238Y-164552380D01*
X106918095Y-165647619D02*
X107680000Y-165647619D01*
X107870476Y-165266666D02*
X108346666Y-165266666D01*
X107775238Y-165552380D02*
X108108571Y-164552380D01*
X108441904Y-165552380D01*
X164536380Y-90209666D02*
X164060190Y-90543000D01*
X164536380Y-90781095D02*
X163536380Y-90781095D01*
X163536380Y-90400142D01*
X163584000Y-90304904D01*
X163631619Y-90257285D01*
X163726857Y-90209666D01*
X163869714Y-90209666D01*
X163964952Y-90257285D01*
X164012571Y-90304904D01*
X164060190Y-90400142D01*
X164060190Y-90781095D01*
X163536380Y-89876333D02*
X163536380Y-89257285D01*
X163917333Y-89590619D01*
X163917333Y-89447761D01*
X163964952Y-89352523D01*
X164012571Y-89304904D01*
X164107809Y-89257285D01*
X164345904Y-89257285D01*
X164441142Y-89304904D01*
X164488761Y-89352523D01*
X164536380Y-89447761D01*
X164536380Y-89733476D01*
X164488761Y-89828714D01*
X164441142Y-89876333D01*
X149931380Y-93638666D02*
X149455190Y-93972000D01*
X149931380Y-94210095D02*
X148931380Y-94210095D01*
X148931380Y-93829142D01*
X148979000Y-93733904D01*
X149026619Y-93686285D01*
X149121857Y-93638666D01*
X149264714Y-93638666D01*
X149359952Y-93686285D01*
X149407571Y-93733904D01*
X149455190Y-93829142D01*
X149455190Y-94210095D01*
X149026619Y-93257714D02*
X148979000Y-93210095D01*
X148931380Y-93114857D01*
X148931380Y-92876761D01*
X148979000Y-92781523D01*
X149026619Y-92733904D01*
X149121857Y-92686285D01*
X149217095Y-92686285D01*
X149359952Y-92733904D01*
X149931380Y-93305333D01*
X149931380Y-92686285D01*
X149931380Y-89574666D02*
X149455190Y-89908000D01*
X149931380Y-90146095D02*
X148931380Y-90146095D01*
X148931380Y-89765142D01*
X148979000Y-89669904D01*
X149026619Y-89622285D01*
X149121857Y-89574666D01*
X149264714Y-89574666D01*
X149359952Y-89622285D01*
X149407571Y-89669904D01*
X149455190Y-89765142D01*
X149455190Y-90146095D01*
X149931380Y-88622285D02*
X149931380Y-89193714D01*
X149931380Y-88908000D02*
X148931380Y-88908000D01*
X149074238Y-89003238D01*
X149169476Y-89098476D01*
X149217095Y-89193714D01*
D16*
X116604142Y-80608714D02*
X116604142Y-79846714D01*
X116894428Y-79846714D01*
X116967000Y-79883000D01*
X117003285Y-79919285D01*
X117039571Y-79991857D01*
X117039571Y-80100714D01*
X117003285Y-80173285D01*
X116967000Y-80209571D01*
X116894428Y-80245857D01*
X116604142Y-80245857D01*
X117511285Y-79846714D02*
X117656428Y-79846714D01*
X117729000Y-79883000D01*
X117801571Y-79955571D01*
X117837857Y-80100714D01*
X117837857Y-80354714D01*
X117801571Y-80499857D01*
X117729000Y-80572428D01*
X117656428Y-80608714D01*
X117511285Y-80608714D01*
X117438714Y-80572428D01*
X117366142Y-80499857D01*
X117329857Y-80354714D01*
X117329857Y-80100714D01*
X117366142Y-79955571D01*
X117438714Y-79883000D01*
X117511285Y-79846714D01*
X118055571Y-79846714D02*
X118491000Y-79846714D01*
X118273285Y-80608714D02*
X118273285Y-79846714D01*
X119144142Y-80608714D02*
X118708714Y-80608714D01*
X118926428Y-80608714D02*
X118926428Y-79846714D01*
X118853857Y-79955571D01*
X118781285Y-80028142D01*
X118708714Y-80064428D01*
D10*
X93646666Y-73620380D02*
X93646666Y-74334666D01*
X93599047Y-74477523D01*
X93503809Y-74572761D01*
X93360952Y-74620380D01*
X93265714Y-74620380D01*
X94646666Y-74620380D02*
X94075238Y-74620380D01*
X94360952Y-74620380D02*
X94360952Y-73620380D01*
X94265714Y-73763238D01*
X94170476Y-73858476D01*
X94075238Y-73906095D01*
X162155142Y-90209666D02*
X162202761Y-90257285D01*
X162250380Y-90400142D01*
X162250380Y-90495380D01*
X162202761Y-90638238D01*
X162107523Y-90733476D01*
X162012285Y-90781095D01*
X161821809Y-90828714D01*
X161678952Y-90828714D01*
X161488476Y-90781095D01*
X161393238Y-90733476D01*
X161298000Y-90638238D01*
X161250380Y-90495380D01*
X161250380Y-90400142D01*
X161298000Y-90257285D01*
X161345619Y-90209666D01*
X161583714Y-89352523D02*
X162250380Y-89352523D01*
X161202761Y-89590619D02*
X161917047Y-89828714D01*
X161917047Y-89209666D01*
X166854142Y-90209666D02*
X166901761Y-90257285D01*
X166949380Y-90400142D01*
X166949380Y-90495380D01*
X166901761Y-90638238D01*
X166806523Y-90733476D01*
X166711285Y-90781095D01*
X166520809Y-90828714D01*
X166377952Y-90828714D01*
X166187476Y-90781095D01*
X166092238Y-90733476D01*
X165997000Y-90638238D01*
X165949380Y-90495380D01*
X165949380Y-90400142D01*
X165997000Y-90257285D01*
X166044619Y-90209666D01*
X165949380Y-89876333D02*
X165949380Y-89257285D01*
X166330333Y-89590619D01*
X166330333Y-89447761D01*
X166377952Y-89352523D01*
X166425571Y-89304904D01*
X166520809Y-89257285D01*
X166758904Y-89257285D01*
X166854142Y-89304904D01*
X166901761Y-89352523D01*
X166949380Y-89447761D01*
X166949380Y-89733476D01*
X166901761Y-89828714D01*
X166854142Y-89876333D01*
X157203142Y-87814666D02*
X157250761Y-87862285D01*
X157298380Y-88005142D01*
X157298380Y-88100380D01*
X157250761Y-88243238D01*
X157155523Y-88338476D01*
X157060285Y-88386095D01*
X156869809Y-88433714D01*
X156726952Y-88433714D01*
X156536476Y-88386095D01*
X156441238Y-88338476D01*
X156346000Y-88243238D01*
X156298380Y-88100380D01*
X156298380Y-88005142D01*
X156346000Y-87862285D01*
X156393619Y-87814666D01*
X157298380Y-86862285D02*
X157298380Y-87433714D01*
X157298380Y-87148000D02*
X156298380Y-87148000D01*
X156441238Y-87243238D01*
X156536476Y-87338476D01*
X156584095Y-87433714D01*
M02*
